<svg width="144" height="144" viewBox="0 0 144 144" fill="none" xmlns="http://www.w3.org/2000/svg">
<path d="M104.384 57.3372C104.384 67.9396 99.2994 77.3503 91.4043 83.2636L99.1763 93.6264C104.818 89.4073 109.397 83.93 112.55 77.6302C115.702 71.3304 117.342 64.3819 117.337 57.3372H104.384ZM71.9999 24.9535C80.5886 24.9535 88.8256 28.3653 94.8987 34.4385C100.972 40.5116 104.384 48.7485 104.384 57.3372H117.337C117.337 45.313 112.561 33.7813 104.058 25.279C95.5558 16.7766 84.0241 12 71.9999 12V24.9535ZM39.6162 57.3372C39.6162 48.7485 43.0281 40.5116 49.1012 34.4385C55.1743 28.3653 63.4112 24.9535 71.9999 24.9535V12C59.9758 12 48.4441 16.7766 39.9417 25.279C31.4393 33.7813 26.6627 45.313 26.6627 57.3372H39.6162ZM52.5956 83.2636C48.5629 80.2511 45.2895 76.3384 43.0361 71.8372C40.7827 67.3361 39.6117 62.3709 39.6162 57.3372H26.6627C26.6582 64.3819 28.2975 71.3304 31.4502 77.6302C34.6029 83.93 39.1821 89.4073 44.8235 93.6264L52.5956 83.2636ZM65.5038 120.44C65.2989 110.564 63.2586 100.813 59.4869 91.6834L47.5178 96.6381C50.6655 104.261 52.3819 112.422 52.5568 120.712L65.5038 120.44ZM80.6917 116.994C77.9931 118.344 75.0173 119.047 71.9999 119.047C68.9826 119.047 66.0067 118.344 63.3081 116.994L57.5179 128.581C62.0145 130.83 66.9727 132 71.9999 132C77.0272 132 81.9854 130.83 86.4819 128.581L80.6917 116.994ZM84.513 91.6898C80.7399 100.817 78.6973 110.566 78.4896 120.44L91.4431 120.712C91.618 112.422 93.3343 104.261 96.482 96.6381L84.513 91.6898ZM86.4819 128.581C87.947 127.846 89.1834 126.724 90.0577 125.337C90.932 123.95 91.411 122.351 91.4431 120.712L78.4896 120.44C78.5075 119.72 78.7221 119.018 79.1102 118.41C79.4984 117.803 80.0453 117.313 80.6917 116.994L86.4819 128.581ZM52.5568 120.712C52.6215 123.976 54.4609 127.053 57.5179 128.581L63.3081 116.994C63.9546 117.313 64.5015 117.803 64.8897 118.41C65.2778 119.018 65.4924 119.72 65.5102 120.44L52.5568 120.712ZM44.8235 93.6264C45.795 94.3647 46.3715 94.7922 46.773 95.1161C47.181 95.4528 47.1033 95.4399 46.922 95.2067L57.1552 87.2662C55.9441 85.6989 54.0658 84.3647 52.5956 83.2636L44.8235 93.6264ZM59.4869 91.6834C58.9817 90.4593 58.3405 88.7883 57.1552 87.2662L46.922 95.2067C46.8378 95.0901 46.8184 95.0318 46.9026 95.2067C47.1093 95.6801 47.3122 96.155 47.5114 96.6316L59.4869 91.6834ZM91.4043 83.2636C89.934 84.3647 88.0493 85.7053 86.8382 87.2662L97.0779 95.2067C96.903 95.4334 96.8188 95.4528 97.2269 95.1225C97.6284 94.7922 98.1984 94.3647 99.1763 93.6329L91.4043 83.2636ZM96.482 96.6381L96.8706 95.7119L97.0973 95.2067C97.1815 95.0318 97.1621 95.0901 97.0779 95.2067L86.8382 87.2662C85.6529 88.7947 85.0182 90.4593 84.513 91.6898L96.482 96.6381Z" fill="#ADC4FC"/>
<path d="M91.3846 96.1992C85.6491 100.033 78.9052 102.08 72.0062 102.08C65.1073 102.08 58.3634 100.033 52.6278 96.1992" stroke="#ADC4FC" stroke-width="12.9535"/>
</svg>
