<svg fill="none" xmlns="http://www.w3.org/2000/svg">
  <symbol viewBox="0 0 24 24" id="check">
    <path d="M18.836 8.28096L10.6979 16.4191C10.4436 16.6731 10.0988 16.8157 9.73941 16.8157C9.37998 16.8157 9.03524 16.6731 8.78092 16.4191L5.16399 12.8021C4.92453 12.5449 4.79413 12.2048 4.8002 11.8534C4.80627 11.5019 4.94834 11.1666 5.19654 10.9177C5.44539 10.6695 5.78077 10.5274 6.13219 10.5214C6.4836 10.5153 6.82369 10.6457 7.08096 10.8852L9.73941 13.5436L16.919 6.36399C17.1763 6.12453 17.5164 5.99413 17.8678 6.0002C18.2192 6.00627 18.5546 6.14834 18.8035 6.39654C19.0517 6.64539 19.1937 6.98077 19.1998 7.33219C19.2059 7.6836 19.0755 8.02369 18.836 8.28096Z" />
  </symbol>
  <symbol viewBox="0 0 18 18" id="close">
    <path d="M16.7458 0.993765C16.628 0.875778 16.4882 0.782172 16.3342 0.718305C16.1802 0.654438 16.0152 0.621563 15.8485 0.621563C15.6818 0.621563 15.5168 0.654438 15.3628 0.718305C15.2088 0.782172 15.069 0.875778 14.9512 0.993765L8.7276 7.20467L2.50397 0.981037C2.38613 0.863206 2.24625 0.769737 2.09229 0.705967C1.93834 0.642197 1.77333 0.609375 1.60669 0.609375C1.44005 0.609375 1.27505 0.642197 1.12109 0.705967C0.967137 0.769737 0.827251 0.863206 0.709419 0.981037C0.591588 1.09887 0.498119 1.23876 0.434349 1.39271C0.370579 1.54666 0.337757 1.71167 0.337757 1.87831C0.337757 2.04495 0.370579 2.20996 0.434349 2.36391C0.498119 2.51787 0.591588 2.65775 0.709419 2.77558L6.93306 8.99922L0.709419 15.2229C0.591588 15.3407 0.498119 15.4806 0.434349 15.6345C0.370579 15.7885 0.337757 15.9535 0.337757 16.1201C0.337757 16.2868 0.370579 16.4518 0.434349 16.6057C0.498119 16.7597 0.591588 16.8996 0.709419 17.0174C0.827251 17.1352 0.967137 17.2287 1.12109 17.2925C1.27505 17.3562 1.44005 17.3891 1.60669 17.3891C1.77333 17.3891 1.93834 17.3562 2.09229 17.2925C2.24625 17.2287 2.38613 17.1352 2.50397 17.0174L8.7276 10.7938L14.9512 17.0174C15.0691 17.1352 15.209 17.2287 15.3629 17.2925C15.5169 17.3562 15.6819 17.3891 15.8485 17.3891C16.0151 17.3891 16.1802 17.3562 16.3341 17.2925C16.4881 17.2287 16.628 17.1352 16.7458 17.0174C16.8636 16.8996 16.9571 16.7597 17.0209 16.6057C17.0846 16.4518 17.1174 16.2868 17.1174 16.1201C17.1174 15.9535 17.0846 15.7885 17.0209 15.6345C16.9571 15.4806 16.8636 15.3407 16.7458 15.2229L10.5221 8.99922L16.7458 2.77558C17.2294 2.29195 17.2294 1.4774 16.7458 0.993765Z" />
  </symbol>
</svg>

