
<svg fill="none" xmlns="http://www.w3.org/2000/svg">

  <symbol viewBox="0 0 19 3" id="minus">
    <path d="M0.804688 2.60156V0.832031H18.1836V2.60156H0.804688Z" />
  </symbol>

  <symbol viewBox="0 0 14 9" id="ravno">
    <path d="M0.0625 8.70312V6.5H13.9375V8.70312H0.0625ZM0.0625 2.64062V0.4375H13.9375V2.64062H0.0625Z" />
  </symbol>

  <symbol viewBox="0 0 35 34" id="smile">
    <path d="M25.4429 20.8852C24.9076 22.6358 23.9093 24.0464 22.4481 25.117C20.9869 26.1876 19.3375 26.7229 17.5002 26.7229C15.6628 26.7229 14.0135 26.1876 12.5522 25.117C11.091 24.0464 10.0928 22.6358 9.55745 20.8852C9.44171 20.5235 9.47065 20.1727 9.64426 19.8327C9.81787 19.4927 10.0928 19.2648 10.4689 19.1491C10.8306 19.0333 11.1814 19.0623 11.5214 19.2359C11.8614 19.4095 12.0893 19.6844 12.205 20.0605C12.5667 21.218 13.2358 22.1547 14.2124 22.8709C15.189 23.587 16.2849 23.9451 17.5002 23.9451C18.7154 23.9451 19.8114 23.587 20.7879 22.8709C21.7645 22.1547 22.4336 21.218 22.7953 20.0605C22.911 19.6844 23.1425 19.4095 23.4897 19.2359C23.837 19.0623 24.1914 19.0333 24.5531 19.1491C24.9148 19.2648 25.1825 19.4927 25.3561 19.8327C25.5297 20.1727 25.5586 20.5235 25.4429 20.8852ZM14.7224 11.4451C14.7224 12.2119 14.4511 12.8665 13.9086 13.4091C13.366 13.9516 12.7114 14.2229 11.9446 14.2229C11.1778 14.2229 10.5232 13.9516 9.98063 13.4091C9.4381 12.8665 9.16683 12.2119 9.16683 11.4451C9.16683 10.6783 9.4381 10.0237 9.98063 9.48112C10.5232 8.93858 11.1778 8.66732 11.9446 8.66732C12.7114 8.66732 13.366 8.93858 13.9086 9.48112C14.4511 10.0237 14.7224 10.6783 14.7224 11.4451ZM25.8335 11.4451C25.8335 12.2119 25.5622 12.8665 25.0197 13.4091C24.4772 13.9516 23.8225 14.2229 23.0557 14.2229C22.2889 14.2229 21.6343 13.9516 21.0917 13.4091C20.5492 12.8665 20.2779 12.2119 20.2779 11.4451C20.2779 10.6783 20.5492 10.0237 21.0917 9.48112C21.6343 8.93858 22.2889 8.66732 23.0557 8.66732C23.8225 8.66732 24.4772 8.93858 25.0197 9.48112C25.5622 10.0237 25.8335 10.6783 25.8335 11.4451ZM31.389 17.0007C31.389 15.1199 31.0201 13.3223 30.2823 11.6079C29.5444 9.89345 28.557 8.41775 27.32 7.18077C26.0831 5.94379 24.6074 4.95638 22.893 4.21853C21.1785 3.48069 19.3809 3.11176 17.5002 3.11176C15.6194 3.11176 13.8218 3.48069 12.1074 4.21853C10.393 4.95638 8.91726 5.94379 7.68028 7.18077C6.44331 8.41775 5.45589 9.89345 4.71804 11.6079C3.9802 13.3223 3.61127 15.1199 3.61127 17.0007C3.61127 18.8814 3.9802 20.679 4.71804 22.3934C5.45589 24.1079 6.44331 25.5835 7.68028 26.8205C8.91726 28.0575 10.393 29.0449 12.1074 29.7828C13.8218 30.5206 15.6194 30.8895 17.5002 30.8895C19.3809 30.8895 21.1785 30.5206 22.893 29.7828C24.6074 29.0449 26.0831 28.0575 27.32 26.8205C28.557 25.5835 29.5444 24.1079 30.2823 22.3934C31.0201 20.679 31.389 18.8814 31.389 17.0007ZM34.1668 17.0007C34.1668 20.0244 33.4217 22.813 31.9316 25.3665C30.4414 27.9201 28.4196 29.9419 25.866 31.4321C23.3125 32.9222 20.5239 33.6673 17.5002 33.6673C14.4764 33.6673 11.6878 32.9222 9.13428 31.4321C6.58075 29.9419 4.5589 27.9201 3.06874 25.3665C1.57858 22.813 0.833496 20.0244 0.833496 17.0007C0.833496 13.9769 1.57858 11.1883 3.06874 8.63477C4.5589 6.08124 6.58075 4.05939 9.13428 2.56923C11.6878 1.07907 14.4764 0.333984 17.5002 0.333984C20.5239 0.333984 23.3125 1.07907 25.866 2.56923C28.4196 4.05939 30.4414 6.08124 31.9316 8.63477C33.4217 11.1883 34.1668 13.9769 34.1668 17.0007Z" />
  </symbol>

  <symbol viewBox="0 0 19 14" id="arrow-right">
    <path d="M18.0226 5.95184C18.2101 6.13936 18.3154 6.39367 18.3154 6.65884C18.3154 6.924 18.2101 7.17831 18.0226 7.36584L12.3656 13.0228C12.2734 13.1183 12.1631 13.1945 12.041 13.2469C11.919 13.2993 11.7878 13.3269 11.655 13.3281C11.5223 13.3292 11.3906 13.3039 11.2677 13.2537C11.1448 13.2034 11.0331 13.1291 10.9392 13.0352C10.8454 12.9413 10.7711 12.8297 10.7208 12.7068C10.6705 12.5839 10.6452 12.4522 10.6464 12.3194C10.6475 12.1867 10.6751 12.0554 10.7275 11.9334C10.78 11.8114 10.8561 11.7011 10.9516 11.6088L14.9016 7.65884L1.65864 7.65884C1.39343 7.65884 1.13907 7.55348 0.951536 7.36594C0.764 7.17841 0.658644 6.92405 0.658644 6.65884C0.658644 6.39362 0.764 6.13927 0.951536 5.95173C1.13907 5.76419 1.39343 5.65884 1.65864 5.65884L14.9016 5.65884L10.9516 1.70884C10.7695 1.52023 10.6687 1.26763 10.671 1.00544C10.6732 0.743239 10.7784 0.492426 10.9638 0.307018C11.1492 0.121611 11.4 0.0164404 11.6622 0.0141621C11.9244 0.0118837 12.177 0.112678 12.3656 0.294836L18.0226 5.95184Z" />
  </symbol>

</svg>



