<svg width="25" height="24" viewBox="0 0 25 24" fill="none" xmlns="http://www.w3.org/2000/svg">
<path d="M4.625 21C3.92881 21 3.26113 20.7234 2.76884 20.2312C2.27656 19.7389 2 19.0712 2 18.375V14.625C2 14.3266 2.11853 14.0405 2.3295 13.8295C2.54048 13.6185 2.82663 13.5 3.125 13.5C3.42337 13.5 3.70952 13.6185 3.9205 13.8295C4.13147 14.0405 4.25 14.3266 4.25 14.625V18.375C4.25 18.582 4.418 18.75 4.625 18.75H20.375C20.4745 18.75 20.5698 18.7105 20.6402 18.6402C20.7105 18.5698 20.75 18.4745 20.75 18.375V14.625C20.75 14.3266 20.8685 14.0405 21.0795 13.8295C21.2905 13.6185 21.5766 13.5 21.875 13.5C22.1734 13.5 22.4595 13.6185 22.6705 13.8295C22.8815 14.0405 23 14.3266 23 14.625V18.375C23 19.0712 22.7234 19.7389 22.2312 20.2312C21.7389 20.7234 21.0712 21 20.375 21H4.625Z" fill="#5B89F8"/>
<path d="M13.6243 5.71613V14.2496C13.6243 14.548 13.5058 14.8341 13.2948 15.0451C13.0838 15.2561 12.7977 15.3746 12.4993 15.3746C12.2009 15.3746 11.9148 15.2561 11.7038 15.0451C11.4928 14.8341 11.3743 14.548 11.3743 14.2496V5.71613L8.4193 8.66963C8.3149 8.77403 8.19096 8.85685 8.05455 8.91335C7.91814 8.96985 7.77195 8.99893 7.6243 8.99893C7.47666 8.99893 7.33046 8.96985 7.19405 8.91335C7.05764 8.85685 6.9337 8.77403 6.8293 8.66963C6.7249 8.56523 6.64208 8.44129 6.58558 8.30488C6.52908 8.16848 6.5 8.02228 6.5 7.87463C6.5 7.72699 6.52908 7.58079 6.58558 7.44438C6.64208 7.30797 6.7249 7.18403 6.8293 7.07963L11.7043 2.20463C11.8086 2.10014 11.9326 2.01723 12.069 1.96067C12.2054 1.90411 12.3516 1.875 12.4993 1.875C12.647 1.875 12.7932 1.90411 12.9296 1.96067C13.066 2.01723 13.19 2.10014 13.2943 2.20463L18.1693 7.07963C18.2737 7.18403 18.3565 7.30797 18.413 7.44438C18.4695 7.58079 18.4986 7.72699 18.4986 7.87463C18.4986 8.02228 18.4695 8.16848 18.413 8.30488C18.3565 8.44129 18.2737 8.56523 18.1693 8.66963C18.0649 8.77403 17.941 8.85685 17.8046 8.91335C17.6681 8.96985 17.5219 8.99893 17.3743 8.99893C17.2267 8.99893 17.0805 8.96985 16.944 8.91335C16.8076 8.85685 16.6837 8.77403 16.5793 8.66963L13.6243 5.71613Z" fill="#5B89F8"/>
</svg>
