<svg fill="none" xmlns="http://www.w3.org/2000/svg">
	<symbol viewBox="0 0 32 33" id="home">
		<path fill-rule="evenodd" clip-rule="evenodd"
			d="M17.5965 4.37544C17.1401 4.0204 16.5784 3.82764 16.0001 3.82764C15.4219 3.82764 14.8601 4.0204 14.4037 4.37544L3.50453 12.8514C2.52693 13.6145 3.06513 15.181 4.30404 15.181H5.60014V25.581C5.60014 26.2706 5.87406 26.9319 6.36166 27.4195C6.84925 27.9071 7.51057 28.181 8.20014 28.181H23.8001C24.4897 28.181 25.151 27.9071 25.6386 27.4195C26.1262 26.9319 26.4001 26.2706 26.4001 25.581V15.181H27.6962C28.9338 15.181 29.4746 13.6145 28.4957 12.8527L17.5965 4.37544ZM17.3001 25.581L16.65 25.5811C16.65 25.5811 16.3448 25.5811 16 25.5811C15.6552 25.5811 15.35 25.5811 15.35 25.5811L14.7001 25.581H8.20014V13.894C8.20014 13.4819 8.01034 13.114 7.71264 12.8735L16.0001 6.42814L24.2876 12.8735C24.1353 12.9964 24.0125 13.1519 23.9281 13.3285C23.8438 13.5051 23.8 13.6983 23.8001 13.894V25.581H17.3001Z" />
		<path
			d="M13.4 17.5443C13.4 17.0707 13.8626 16.4807 14.7 16.4807H17.3C18.1373 16.4807 18.6 17.0707 18.6 17.5443V25.817C18.6 26.2906 18.1373 26.8807 17.3 26.8807H14.7C13.8626 26.8807 13.4 26.2906 13.4 25.817V17.5443Z"
			stroke-width="2.6" />
	</symbol>

	<symbol viewBox="0 0 32 32" id="smile">
		<path
			d="M22.1953 19.3107C21.7778 20.6762 20.9991 21.7764 19.8594 22.6115C18.7196 23.4466 17.4332 23.8641 16 23.8641C14.5668 23.8641 13.2804 23.4466 12.1406 22.6115C11.0009 21.7764 10.2222 20.6762 9.80469 19.3107C9.71441 19.0286 9.73698 18.7549 9.8724 18.4897C10.0078 18.2246 10.2222 18.0468 10.5156 17.9565C10.7977 17.8663 11.0714 17.8888 11.3366 18.0243C11.6018 18.1597 11.7795 18.3741 11.8698 18.6675C12.1519 19.5703 12.6738 20.3009 13.4355 20.8595C14.1973 21.4181 15.0521 21.6974 16 21.6974C16.9479 21.6974 17.8027 21.4181 18.5645 20.8595C19.3262 20.3009 19.8481 19.5703 20.1302 18.6675C20.2205 18.3741 20.401 18.1597 20.6719 18.0243C20.9427 17.8888 21.2192 17.8663 21.5013 17.9565C21.7834 18.0468 21.9922 18.2246 22.1276 18.4897C22.263 18.7549 22.2856 19.0286 22.1953 19.3107ZM13.8333 11.9474C13.8333 12.5455 13.6217 13.0562 13.1986 13.4793C12.7754 13.9025 12.2648 14.1141 11.6667 14.1141C11.0686 14.1141 10.5579 13.9025 10.1348 13.4793C9.71159 13.0562 9.5 12.5455 9.5 11.9474C9.5 11.3493 9.71159 10.8387 10.1348 10.4155C10.5579 9.99235 11.0686 9.78076 11.6667 9.78076C12.2648 9.78076 12.7754 9.99235 13.1986 10.4155C13.6217 10.8387 13.8333 11.3493 13.8333 11.9474ZM22.5 11.9474C22.5 12.5455 22.2884 13.0562 21.8652 13.4793C21.4421 13.9025 20.9314 14.1141 20.3333 14.1141C19.7352 14.1141 19.2246 13.9025 18.8014 13.4793C18.3783 13.0562 18.1667 12.5455 18.1667 11.9474C18.1667 11.3493 18.3783 10.8387 18.8014 10.4155C19.2246 9.99235 19.7352 9.78076 20.3333 9.78076C20.9314 9.78076 21.4421 9.99235 21.8652 10.4155C22.2884 10.8387 22.5 11.3493 22.5 11.9474ZM26.8333 16.2808C26.8333 14.8137 26.5456 13.4116 25.9701 12.0744C25.3945 10.7371 24.6244 9.5861 23.6595 8.62126C22.6947 7.65641 21.5436 6.88623 20.2064 6.31071C18.8691 5.73519 17.467 5.44743 16 5.44743C14.533 5.44743 13.1309 5.73519 11.7936 6.31071C10.4564 6.88623 9.30534 7.65641 8.3405 8.62126C7.37565 9.5861 6.60547 10.7371 6.02995 12.0744C5.45443 13.4116 5.16667 14.8137 5.16667 16.2808C5.16667 17.7478 5.45443 19.1499 6.02995 20.4871C6.60547 21.8244 7.37565 22.9754 8.3405 23.9403C9.30534 24.9051 10.4564 25.6753 11.7936 26.2508C13.1309 26.8263 14.533 27.1141 16 27.1141C17.467 27.1141 18.8691 26.8263 20.2064 26.2508C21.5436 25.6753 22.6947 24.9051 23.6595 23.9403C24.6244 22.9754 25.3945 21.8244 25.9701 20.4871C26.5456 19.1499 26.8333 17.7478 26.8333 16.2808ZM29 16.2808C29 18.6393 28.4188 20.8144 27.2565 22.8062C26.0942 24.7979 24.5171 26.3749 22.5254 27.5373C20.5336 28.6996 18.3585 29.2808 16 29.2808C13.6415 29.2808 11.4664 28.6996 9.47461 27.5373C7.48286 26.3749 5.90582 24.7979 4.74349 22.8062C3.58116 20.8144 3 18.6393 3 16.2808C3 13.9223 3.58116 11.7471 4.74349 9.75537C5.90582 7.76362 7.48286 6.18658 9.47461 5.02425C11.4664 3.86193 13.6415 3.28076 16 3.28076C18.3585 3.28076 20.5336 3.86193 22.5254 5.02425C24.5171 6.18658 26.0942 7.76362 27.2565 9.75537C28.4188 11.7471 29 13.9223 29 16.2808Z" />
	</symbol>

	<symbol viewBox="0 0 32 32" id="case">
		<path
			d="M16.9648 14.8308C16.8428 14.9892 16.6775 15.0781 16.505 15.0781C16.3326 15.0781 16.1672 14.9892 16.0453 14.8308L13.5906 11.6414C13.4686 11.4828 13.4 11.2675 13.4 11.0432C13.4 10.8188 13.4686 10.6035 13.5906 10.4449C13.7127 10.2862 13.8782 10.1971 14.0508 10.1971C14.2235 10.1971 14.389 10.2862 14.5111 10.4449L15.8544 12.1907V5.68625C15.8544 5.46192 15.9229 5.24679 16.045 5.08816C16.167 4.92954 16.3325 4.84043 16.505 4.84043C16.6776 4.84043 16.8431 4.92954 16.9651 5.08816C17.0871 5.24679 17.1557 5.46192 17.1557 5.68625V12.1907L18.4986 10.4449C18.559 10.3663 18.6308 10.304 18.7097 10.2615C18.7887 10.2189 18.8733 10.1971 18.9588 10.1971C19.0443 10.1971 19.1289 10.2189 19.2079 10.2615C19.2868 10.304 19.3586 10.3663 19.419 10.4449C19.4795 10.5234 19.5274 10.6167 19.5601 10.7194C19.5928 10.822 19.6096 10.932 19.6096 11.0432C19.6096 11.1543 19.5928 11.2643 19.5601 11.3669C19.5274 11.4696 19.4795 11.5629 19.419 11.6414L16.9648 14.8308Z" />
		<path fill-rule="evenodd" clip-rule="evenodd"
			d="M7.9772 4.22096H16.8227C17.5904 4.22096 18.156 4.72262 18.2853 5.2877L20.6282 15.5259C20.7917 16.2407 20.2252 17.1211 19.1655 17.1211H5.63437C4.57462 17.1211 4.00811 16.2407 4.17169 15.5259L6.51452 5.2877C6.64383 4.72262 7.20947 4.22096 7.9772 4.22096ZM4.81788 4.89945C5.14098 3.48754 6.45627 2.48047 7.9772 2.48047H16.8227C18.3436 2.48047 19.6589 3.48754 19.982 4.89946L22.3248 15.1376C22.7629 17.0521 21.2278 18.8616 19.1655 18.8616H5.63437C3.5721 18.8616 2.03696 17.0521 2.47505 15.1376L4.81788 4.89945ZM5.93355 20.653C5.50947 20.653 5.16569 20.9968 5.16569 21.4209C5.16569 21.845 5.50947 22.1888 5.93355 22.1888H18.866C19.2901 22.1888 19.6339 21.845 19.6339 21.4209C19.6339 20.9968 19.2901 20.653 18.866 20.653H5.93355Z" />
	</symbol>

	<symbol viewBox="0 0 32 32" id="serf">
		<path
			d="M24.5114 5.29785C25.4937 5.29785 26.2304 5.61542 26.722 6.24945C27.1874 6.85117 27.4321 7.72922 27.4565 8.8853L27.4587 9.08029V22.3693C27.4587 23.6223 27.2131 24.5639 26.7215 25.194C26.2565 25.7918 25.5708 26.106 24.6644 26.1372L24.5114 26.14H8.34739C7.3651 26.14 6.62839 25.8247 6.13682 25.1945C5.67139 24.5967 5.42667 23.7203 5.40224 22.5648L5.4001 22.3698V9.08085C5.4001 7.81948 5.64567 6.87401 6.13724 6.24332C6.60224 5.64607 7.28796 5.33184 8.19439 5.30064L8.34739 5.29785H24.5114ZM6.91124 22.2595C6.91124 22.8941 7.03639 23.3721 7.28667 23.6936C7.5181 23.99 7.8421 24.1499 8.25953 24.1727L8.36667 24.1755H13.2854V17.7082H13.2198C13.0634 18.3344 12.8178 18.9323 12.4827 19.5022C12.1484 20.0709 11.764 20.5868 11.3375 21.0394C10.9353 21.4724 10.4979 21.8468 10.033 22.1559C9.59153 22.4445 9.19296 22.6256 8.83596 22.6991C8.56724 22.7476 8.35596 22.6701 8.20253 22.4668C8.0491 22.2634 7.97239 22.0277 7.97239 21.7592C7.97239 21.4661 8.03839 21.2282 8.16953 21.0455C8.28481 20.885 8.44039 20.7825 8.63667 20.738L8.72367 20.7218C9.04896 20.6733 9.39653 20.5168 9.7651 20.2521C10.1482 19.9753 10.5085 19.6483 10.8404 19.276C11.1763 18.9045 11.4872 18.4963 11.7695 18.0559C12.0078 17.682 12.1942 17.3288 12.3297 16.9951L12.3841 16.8536H6.91124V22.2595ZM25.9471 16.8536H15.3314C15.4694 17.228 15.6742 17.6285 15.9464 18.0559C16.2289 18.4963 16.5399 18.9045 16.876 19.276C17.2231 19.6627 17.5797 19.988 17.9457 20.2521C18.2714 20.4872 18.5808 20.6366 18.874 20.7017L18.9832 20.7218C19.2275 20.7547 19.4148 20.8622 19.5464 21.0449C19.6775 21.2288 19.7435 21.4661 19.7435 21.7592C19.7435 22.0277 19.6664 22.2634 19.5134 22.4668C19.36 22.6701 19.1491 22.7476 18.88 22.6991C18.517 22.6256 18.1162 22.4445 17.6782 22.1559C17.2153 21.8457 16.7795 21.4714 16.3784 21.0394C15.9498 20.5836 15.568 20.0711 15.2332 19.5017C14.9463 19.0203 14.7166 18.4856 14.5518 17.9155L14.4961 17.7082H14.4211V24.1727L24.4925 24.175C24.9554 24.175 25.3137 24.0145 25.5674 23.6936C25.8014 23.3966 25.9274 22.9665 25.9454 22.4033L25.9475 22.2595L25.9471 16.8536ZM24.5975 7.26512L24.4925 7.26234H14.4211V11.4482C14.6156 10.9489 14.8708 10.4936 15.1767 10.0999C15.4602 9.7338 15.7928 9.43812 16.1581 9.22738C16.5098 9.02534 16.8901 8.92134 17.2745 8.92207C17.9504 8.92207 18.5122 9.21289 18.9597 9.79455C19.4071 10.3762 19.6308 11.115 19.6308 12.0092C19.6308 12.5218 19.5464 12.9998 19.3775 13.4433C19.203 13.8959 18.9622 14.2999 18.6687 14.6328C18.3942 14.9467 18.0888 15.2116 17.7605 15.4206L17.6127 15.5114H25.9471V9.19061C25.9471 8.55547 25.8207 8.07632 25.5674 7.7504C25.3334 7.45009 25.0102 7.28741 24.5975 7.26512ZM13.2854 7.26234H8.36624C7.89696 7.26234 7.53696 7.42502 7.28667 7.7504C7.05567 8.05125 6.93096 8.48304 6.91382 9.04687L6.91124 9.19061V15.5114H10.0938C9.71354 15.2872 9.36087 14.9911 9.04724 14.6328C8.75339 14.299 8.51133 13.8952 8.3341 13.4433C8.16165 12.9987 8.07307 12.5071 8.07567 12.0092C8.07567 11.1144 8.3011 10.3762 8.75153 9.79455C9.20239 9.21289 9.7621 8.92207 10.4315 8.92207C10.8258 8.92207 11.2017 9.02347 11.5582 9.22738C11.9234 9.43819 12.2558 9.73386 12.5392 10.0999C12.8047 10.4403 13.03 10.8298 13.2078 11.2559L13.2854 11.4482V7.26234ZM10.5074 10.6548C10.1697 10.6548 9.90053 10.7868 9.69996 11.0515C9.49982 11.3156 9.39996 11.6799 9.39996 12.1435C9.39996 12.5257 9.49039 12.9062 9.6721 13.2845C9.85339 13.6628 10.1037 14.0043 10.423 14.3096C10.7582 14.6257 11.128 14.8745 11.5201 15.0479C11.888 15.2131 12.2728 15.3062 12.6618 15.3242L12.8345 15.3287H13.1161V14.9866C13.1187 14.4224 13.0489 13.8617 12.9095 13.3274C12.7803 12.827 12.5867 12.3586 12.337 11.9423C12.0927 11.5395 11.8141 11.2242 11.5012 10.9963C11.1982 10.772 10.8562 10.6543 10.5074 10.6548ZM17.1991 10.6548C16.8533 10.6553 16.5135 10.773 16.2134 10.9963C15.9005 11.2247 15.622 11.5395 15.3781 11.9423C15.1281 12.3593 14.933 12.8274 14.8008 13.3274C14.6764 13.7916 14.6063 14.2775 14.593 14.7687L14.5895 14.9866V15.3287H14.8715C15.3217 15.3327 15.7691 15.2377 16.195 15.0479C16.5861 14.8755 16.9548 14.6265 17.2882 14.3096C17.6045 14.0043 17.8531 13.6628 18.0348 13.2845C18.2161 12.9062 18.307 12.5257 18.307 12.1435C18.307 11.6799 18.2084 11.3156 18.0112 11.0515C17.8141 10.7868 17.5432 10.6548 17.1991 10.6548Z" />
	</symbol>

	<symbol viewBox="0 0 32 32" id="ostatki">
		<path
			d="M16 3.98047L15.6344 4.13257L9.78437 6.47939L9.175 6.72314V13.2732L3.90415 15.5586L3.325 15.8326V23.694L3.8125 23.9982L9.6625 27.2586L10.1198 27.5023L10.577 27.2888L16 24.5773L21.4239 27.2888L21.8802 27.5023L22.3375 27.2586L28.1875 23.9982L28.675 23.694V15.8326L28.0958 15.5586L22.825 13.2732V6.72217L22.2156 6.47842L16.3656 4.13257L16 3.98047ZM16 6.11377L19.199 7.36177L16 8.61172L12.801 7.36274L16 6.11377ZM11.125 8.79502L15.025 10.2868V15.0409L11.125 13.3044V8.79502ZM20.875 8.79502V13.3034L16.975 15.0409V10.2877L20.875 8.79502ZM10.15 15.0097L13.6844 16.5638L10.15 18.3013L6.61562 16.5336L10.15 15.0097ZM21.85 15.0097L25.3844 16.5336L21.85 18.3013L18.3156 16.5638L19.4125 16.0763L21.85 15.0097ZM5.275 18.0273L9.175 19.9773V24.7616L5.275 22.5679V18.0273ZM26.725 18.0273V22.5679L22.825 24.7616V19.9773L26.725 18.0273ZM15.025 18.0887V22.8721L11.125 24.8221V19.9773L15.025 18.0887ZM16.975 18.0887L20.875 19.9773V24.8221L16.975 22.8721V18.0887Z" />
	</symbol>

	<symbol viewBox="0 0 32 32" id="products">
		<path
			d="M27.661 8.94268L16.936 3.0744C16.6494 2.91606 16.3274 2.83301 16 2.83301C15.6726 2.83301 15.3506 2.91606 15.064 3.0744L4.339 8.94512C4.03271 9.1127 3.77704 9.35945 3.59867 9.65958C3.4203 9.95972 3.32579 10.3022 3.325 10.6514V22.3075C3.32579 22.6566 3.4203 22.9991 3.59867 23.2993C3.77704 23.5994 4.03271 23.8462 4.339 24.0137L15.064 29.8845C15.3506 30.0428 15.6726 30.1259 16 30.1259C16.3274 30.1259 16.6494 30.0428 16.936 29.8845L27.661 24.0137C27.9673 23.8462 28.223 23.5994 28.4013 23.2993C28.5797 22.9991 28.6742 22.6566 28.675 22.3075V10.6526C28.6749 10.3028 28.5807 9.95955 28.4023 9.65872C28.2239 9.35788 27.9678 9.11056 27.661 8.94268ZM16 4.78065L25.7914 10.1432L16 15.5057L6.20856 10.1432L16 4.78065ZM5.275 11.8494L15.025 17.1851V27.6407L5.275 22.3087V11.8494ZM16.975 27.6407V17.19L26.725 11.8494V22.3038L16.975 27.6407Z" />
	</symbol>

	<symbol viewBox="0 0 32 32" id="analitics">
		<path
			d="M15.025 28.6307C12.1805 28.6307 9.4526 27.5007 7.44127 25.4894C5.42994 23.4781 4.29999 20.7501 4.29999 17.9057C4.29999 15.0612 5.42994 12.3333 7.44127 10.3219C9.4526 8.31062 12.1805 7.18066 15.025 7.18066C15.2836 7.18066 15.5316 7.28339 15.7144 7.46624C15.8973 7.64908 16 7.89708 16 8.15566V16.9307H24.775C25.0336 16.9307 25.2816 17.0334 25.4644 17.2162C25.6473 17.3991 25.75 17.6471 25.75 17.9057C25.75 20.7501 24.62 23.4781 22.6087 25.4894C20.5974 27.5007 17.8694 28.6307 15.025 28.6307ZM14.05 9.18916C12.4073 9.37193 10.8497 10.0149 9.55637 11.0441C8.26307 12.0732 7.28673 13.4467 6.73975 15.0064C6.19277 16.566 6.0974 18.2485 6.46463 19.86C6.83185 21.4715 7.64673 22.9465 8.81544 24.1152C9.98415 25.2839 11.4592 26.0988 13.0707 26.466C14.6822 26.8333 16.3646 26.7379 17.9243 26.1909C19.484 25.6439 20.8574 24.6676 21.8866 23.3743C22.9158 22.081 23.5587 20.5233 23.7415 18.8807H16C15.4828 18.8807 14.9868 18.6752 14.6211 18.3095C14.2554 17.9438 14.05 17.4478 14.05 16.9307V9.18916Z" />
		<path
			d="M28.675 14.9808H19.9C19.3828 14.9808 18.8868 14.7753 18.5211 14.4096C18.1554 14.0439 17.95 13.5479 17.95 13.0308V4.25576C17.95 3.99718 18.0527 3.74918 18.2356 3.56633C18.4184 3.38348 18.6664 3.28076 18.925 3.28076C21.7694 3.28076 24.4974 4.41071 26.5087 6.42204C28.52 8.43337 29.65 11.1613 29.65 14.0058C29.65 14.2643 29.5473 14.5123 29.3644 14.6952C29.1816 14.878 28.9336 14.9808 28.675 14.9808ZM19.9 13.0308H27.6415C27.4196 11.054 26.5327 9.21122 25.1261 7.80465C23.7195 6.39807 21.8768 5.51113 19.9 5.28926V13.0308Z" />
	</symbol>

	<symbol viewBox="0 0 32 32" id="finance">
		<g clip-path="url(#clip0_885_6010)">
			<path
				d="M14.1618 3.21052C14.622 2.75094 15.2377 2.48051 15.8875 2.45259C16.5373 2.42468 17.1739 2.6413 17.6718 3.05972L17.8382 3.21182L20.3082 5.68052H23.8C24.4557 5.68064 25.0872 5.92852 25.5679 6.37451C26.0486 6.82049 26.343 7.43164 26.3922 8.08552L26.4 8.28052V11.7723L28.87 14.2423C29.3299 14.7026 29.6006 15.3186 29.6285 15.9686C29.6564 16.6187 29.4396 17.2556 29.0208 17.7536L28.8687 17.9187L26.3987 20.3887V23.8805C26.3989 24.5365 26.1512 25.1683 25.7052 25.6492C25.2591 26.1302 24.6478 26.4248 23.9937 26.474L23.8 26.4805H20.3095L17.8395 28.9505C17.3792 29.4105 16.7633 29.6811 16.1132 29.709C15.4631 29.737 14.8262 29.5201 14.3282 29.1013L14.1631 28.9505L11.6931 26.4805H8.2C7.54405 26.4807 6.91226 26.233 6.43129 25.787C5.95031 25.341 5.65569 24.7296 5.6065 24.0755L5.6 23.8805V20.3887L3.13 17.9187C2.67005 17.4585 2.39939 16.8425 2.37148 16.1924C2.34356 15.5423 2.5604 14.9054 2.9792 14.4074L3.13 14.2423L5.6 11.7723V8.28052C5.60012 7.6248 5.848 6.99333 6.29399 6.51263C6.73997 6.03193 7.35112 5.7375 8.005 5.68832L8.2 5.68052H11.6918L14.1618 3.21052ZM16 5.05132L13.53 7.52132C13.0982 7.95247 12.5285 8.218 11.9206 8.27142L11.6918 8.28052H8.2V11.7723C8.20016 12.3832 7.98522 12.9746 7.5929 13.4428L7.4382 13.6118L4.9682 16.0818L7.4382 18.5505C7.86982 18.9822 8.13582 19.5519 8.1896 20.1599L8.2 20.3887V23.8805H11.6918C12.3027 23.8804 12.8941 24.0953 13.3623 24.4876L13.5313 24.6423L16 27.1123L18.47 24.6423C18.9016 24.2107 19.4714 23.9447 20.0794 23.8909L20.3082 23.8805H23.8V20.3887C23.7998 19.7779 24.0148 19.1864 24.4071 18.7182L24.5618 18.5492L27.0318 16.0805L24.5618 13.6105C24.1302 13.1789 23.8642 12.6092 23.8104 12.0011L23.8 11.7723V8.28052H20.3082C19.6973 8.28068 19.1059 8.06574 18.6377 7.67342L18.4687 7.51872L15.9987 5.04872L16 5.05132Z" />
			<path
				d="M16.8533 21.6237H16.1533C15.99 21.6237 15.9083 21.542 15.9083 21.3787V20.4803H15.8267C15.2355 20.4803 14.7728 20.3131 14.4383 19.9787C14.1117 19.6365 13.9483 19.1659 13.9483 18.567V18.3453C13.9483 18.182 14.03 18.1003 14.1933 18.1003H15.185C15.3483 18.1003 15.43 18.182 15.43 18.3453V18.427C15.43 18.7226 15.4883 18.9248 15.605 19.0337C15.7217 19.1426 15.9355 19.197 16.2467 19.197H16.7133C17.0167 19.197 17.2267 19.1387 17.3433 19.022C17.4678 18.9053 17.53 18.6876 17.53 18.3687V18.1937C17.53 17.9992 17.4717 17.8476 17.355 17.7387C17.2383 17.6298 17.1022 17.5559 16.9467 17.517C16.8067 17.4859 16.5306 17.4509 16.1183 17.412C15.7139 17.3731 15.4105 17.3265 15.2083 17.272C15.0061 17.2098 14.8 17.1087 14.59 16.9687C14.1544 16.6887 13.9367 16.1403 13.9367 15.3237V14.892C13.9367 14.2776 14.1 13.807 14.4267 13.4803C14.7611 13.1459 15.2278 12.9787 15.8267 12.9787H15.9083V12.057C15.9083 11.8937 15.99 11.812 16.1533 11.812H16.8533C17.0167 11.812 17.0983 11.8937 17.0983 12.057V12.9787H17.1217C17.6739 12.9787 18.1094 13.1498 18.4283 13.492C18.7472 13.8342 18.9067 14.3009 18.9067 14.892V15.1137C18.9067 15.277 18.825 15.3587 18.6617 15.3587H17.67C17.5067 15.3587 17.425 15.277 17.425 15.1137V15.032C17.425 14.7365 17.3667 14.5342 17.25 14.4253C17.1411 14.3165 16.9272 14.262 16.6083 14.262H16.235C15.9161 14.262 15.6983 14.3242 15.5817 14.4487C15.4728 14.5653 15.4183 14.7987 15.4183 15.1487V15.382C15.4183 15.5531 15.4767 15.6892 15.5933 15.7903C15.71 15.8837 15.8422 15.9459 15.99 15.977C16.1611 16.0081 16.4489 16.0431 16.8533 16.082C17.2656 16.1131 17.5728 16.1637 17.775 16.2337C17.985 16.2959 18.1911 16.397 18.3933 16.537C18.8056 16.8326 19.0117 17.3615 19.0117 18.1237V18.567C19.0117 19.1737 18.8406 19.6442 18.4983 19.9787C18.1639 20.3131 17.705 20.4803 17.1217 20.4803H17.0983V21.3787C17.0983 21.542 17.0167 21.6237 16.8533 21.6237Z" />
		</g>
		<defs>
			<clipPath id="clip0_885_6010">
				<rect width="31.2" height="31.2" fill="white" transform="translate(0.399994 0.480469)" />
			</clipPath>
		</defs>
	</symbol>

	<symbol viewBox="0 0 32 32" id="personal">
		<path
			d="M8.2 11.0059C8.2 10.6217 8.27565 10.2414 8.42265 9.88651C8.56964 9.53163 8.7851 9.20918 9.05671 8.93757C9.32832 8.66596 9.65077 8.45051 10.0056 8.30351C10.3605 8.15652 10.7409 8.08086 11.125 8.08086C11.5091 8.08086 11.8895 8.15652 12.2443 8.30351C12.5992 8.45051 12.9217 8.66596 13.1933 8.93757C13.4649 9.20918 13.6804 9.53163 13.8273 9.88651C13.9743 10.2414 14.05 10.6217 14.05 11.0059C14.05 11.7816 13.7418 12.5256 13.1933 13.0741C12.6447 13.6227 11.9008 13.9309 11.125 13.9309C10.3492 13.9309 9.60525 13.6227 9.05671 13.0741C8.50817 12.5256 8.2 11.7816 8.2 11.0059ZM11.125 6.13086C9.83207 6.13086 8.59209 6.64447 7.67785 7.55871C6.76361 8.47295 6.25 9.71293 6.25 11.0059C6.25 12.2988 6.76361 13.5388 7.67785 14.453C8.59209 15.3672 9.83207 15.8809 11.125 15.8809C12.4179 15.8809 13.6579 15.3672 14.5721 14.453C15.4864 13.5388 16 12.2988 16 11.0059C16 9.71293 15.4864 8.47295 14.5721 7.55871C13.6579 6.64447 12.4179 6.13086 11.125 6.13086ZM20.875 11.9809C20.875 11.4637 21.0804 10.9677 21.4461 10.602C21.8118 10.2363 22.3078 10.0309 22.825 10.0309C23.3422 10.0309 23.8382 10.2363 24.2039 10.602C24.5696 10.9677 24.775 11.4637 24.775 11.9809C24.775 12.498 24.5696 12.994 24.2039 13.3597C23.8382 13.7254 23.3422 13.9309 22.825 13.9309C22.3078 13.9309 21.8118 13.7254 21.4461 13.3597C21.0804 12.994 20.875 12.498 20.875 11.9809ZM22.825 8.08086C21.7907 8.08086 20.7987 8.49175 20.0673 9.22314C19.3359 9.95454 18.925 10.9465 18.925 11.9809C18.925 13.0152 19.3359 14.0072 20.0673 14.7386C20.7987 15.47 21.7907 15.8809 22.825 15.8809C23.8593 15.8809 24.8513 15.47 25.5827 14.7386C26.3141 14.0072 26.725 13.0152 26.725 11.9809C26.725 10.9465 26.3141 9.95454 25.5827 9.22314C24.8513 8.49175 23.8593 8.08086 22.825 8.08086ZM3.325 20.7559C3.325 19.9801 3.63317 19.2361 4.18171 18.6876C4.73025 18.139 5.47424 17.8309 6.25 17.8309H16C16.7758 17.8309 17.5197 18.139 18.0683 18.6876C18.6168 19.2361 18.925 19.9801 18.925 20.7559V20.9743C18.9229 21.0636 18.9164 21.1527 18.9055 21.2414C18.7944 22.1868 18.4426 23.0878 17.8837 23.8583C16.817 25.3306 14.789 26.6059 11.125 26.6059C7.4629 26.6059 5.4349 25.3306 4.36435 23.8583C3.80618 23.0876 3.45504 22.1866 3.3445 21.2414C3.33479 21.1526 3.32828 21.0635 3.325 20.9743V20.9392V20.7559ZM5.275 20.9314V20.945L5.2828 21.0406C5.35831 21.6442 5.58502 22.219 5.9419 22.7117C6.5776 23.5853 7.9621 24.6559 11.125 24.6559C14.2879 24.6559 15.6724 23.5853 16.3081 22.7117C16.665 22.219 16.8917 21.6442 16.9672 21.0406C16.9707 21.0081 16.9733 20.9756 16.975 20.9431V20.7559C16.975 20.4973 16.8723 20.2493 16.6894 20.0664C16.5066 19.8836 16.2586 19.7809 16 19.7809H6.25C5.99141 19.7809 5.74342 19.8836 5.56057 20.0664C5.37772 20.2493 5.275 20.4973 5.275 20.7559V20.9314ZM22.825 24.6559C21.6784 24.6559 20.7385 24.4804 19.978 24.1918C20.2906 23.6191 20.5273 23.0082 20.6819 22.3744C21.2045 22.5713 21.8987 22.7059 22.825 22.7059C25.007 22.7059 25.9021 21.961 26.296 21.4072C26.5262 21.0841 26.6723 20.7088 26.7211 20.3152L26.725 20.2606C26.723 20.1326 26.6707 20.0106 26.5795 19.9209C26.4883 19.8311 26.3655 19.7808 26.2375 19.7809H20.7775C20.6335 19.0737 20.3338 18.4076 19.9 17.8309H26.2375C27.583 17.8309 28.675 18.9229 28.675 20.2684V20.3015C28.6727 20.3725 28.6675 20.4435 28.6594 20.5141C28.5768 21.2449 28.3097 21.9428 27.8833 22.5421C27.0604 23.6945 25.5179 24.6559 22.825 24.6559Z" />
	</symbol>

	<symbol viewBox="0 0 32 32" id="location">
		<path
			d="M24.775 12.8612C24.775 10.534 23.8505 8.302 22.2049 6.65637C20.5592 5.01074 18.3273 4.08623 16 4.08623C13.6727 4.08623 11.4408 5.01074 9.79513 6.65637C8.1495 8.302 7.22499 10.534 7.22499 12.8612C7.22499 16.4609 10.1051 21.1526 16 26.7725C21.8948 21.1526 24.775 16.4609 24.775 12.8612ZM16 29.4362C8.84934 22.9369 5.27499 17.4106 5.27499 12.8612C5.27499 10.0168 6.40495 7.28884 8.41627 5.27751C10.4276 3.26618 13.1555 2.13623 16 2.13623C18.8444 2.13623 21.5724 3.26618 23.5837 5.27751C25.595 7.28884 26.725 10.0168 26.725 12.8612C26.725 17.4106 23.1506 22.9369 16 29.4362Z" />
		<path
			d="M16 15.7858C16.7758 15.7858 17.5197 15.4777 18.0683 14.9291C18.6168 14.3806 18.925 13.6366 18.925 12.8608C18.925 12.0851 18.6168 11.3411 18.0683 10.7926C17.5197 10.244 16.7758 9.93584 16 9.93584C15.2242 9.93584 14.4803 10.244 13.9317 10.7926C13.3832 11.3411 13.075 12.0851 13.075 12.8608C13.075 13.6366 13.3832 14.3806 13.9317 14.9291C14.4803 15.4777 15.2242 15.7858 16 15.7858ZM16 17.7358C14.7071 17.7358 13.4671 17.2222 12.5529 16.308C11.6386 15.3937 11.125 14.1538 11.125 12.8608C11.125 11.5679 11.6386 10.3279 12.5529 9.41369C13.4671 8.49945 14.7071 7.98584 16 7.98584C17.2929 7.98584 18.5329 8.49945 19.4471 9.41369C20.3614 10.3279 20.875 11.5679 20.875 12.8608C20.875 14.1538 20.3614 15.3937 19.4471 16.308C18.5329 17.2222 17.2929 17.7358 16 17.7358Z" />
	</symbol>

	<symbol viewBox="0 0 32 32" id="settings">
		<path fill-rule="evenodd" clip-rule="evenodd"
			d="M16 11.7114C14.7071 11.7114 13.4671 12.225 12.5529 13.1393C11.6386 14.0535 11.125 15.2935 11.125 16.5864C11.125 17.8794 11.6386 19.1193 12.5529 20.0336C13.4671 20.9478 14.7071 21.4614 16 21.4614C17.2929 21.4614 18.5329 20.9478 19.4471 20.0336C20.3614 19.1193 20.875 17.8794 20.875 16.5864C20.875 15.2935 20.3614 14.0535 19.4471 13.1393C18.5329 12.225 17.2929 11.7114 16 11.7114ZM13.075 16.5864C13.075 15.8107 13.3832 15.0667 13.9317 14.5181C14.4803 13.9696 15.2242 13.6614 16 13.6614C16.7758 13.6614 17.5197 13.9696 18.0683 14.5181C18.6168 15.0667 18.925 15.8107 18.925 16.5864C18.925 17.3622 18.6168 18.1062 18.0683 18.6547C17.5197 19.2033 16.7758 19.5114 16 19.5114C15.2242 19.5114 14.4803 19.2033 13.9317 18.6547C13.3832 18.1062 13.075 17.3622 13.075 16.5864Z" />
		<path fill-rule="evenodd" clip-rule="evenodd"
			d="M15.9675 2.61133C15.389 2.61133 14.9067 2.61133 14.5115 2.63733C14.1075 2.65415 13.7091 2.73761 13.3324 2.88433C12.8985 3.06384 12.5043 3.32707 12.1721 3.65898C11.84 3.99089 11.5765 4.38497 11.3967 4.81873C11.2082 5.27373 11.1575 5.75473 11.1367 6.27733C11.1346 6.46846 11.084 6.65592 10.9896 6.82214C10.8953 6.98836 10.7602 7.12789 10.5972 7.22763C10.4293 7.31928 10.2409 7.36677 10.0497 7.36563C9.85846 7.3645 9.67064 7.31477 9.50389 7.22113C9.04109 6.97673 8.59909 6.78043 8.11029 6.71543C7.64482 6.6542 7.17185 6.68526 6.71838 6.80682C6.26491 6.92839 5.83982 7.13808 5.46739 7.42393C5.1525 7.67727 4.8815 7.98077 4.66529 8.32223C4.44429 8.65243 4.20249 9.06973 3.91389 9.57023L3.88139 9.62743C3.59149 10.1279 3.35099 10.5452 3.17679 10.9014C2.99479 11.2732 2.85179 11.6398 2.79979 12.0454C2.67577 12.9853 2.93015 13.936 3.50699 14.6883C3.80729 15.0796 4.19859 15.3643 4.64059 15.6425C4.80538 15.74 4.94267 15.8777 5.03955 16.0428C5.13643 16.2079 5.18972 16.395 5.19439 16.5863C5.18972 16.7777 5.13643 16.9647 5.03955 17.1299C4.94267 17.295 4.80538 17.4327 4.64059 17.5301C4.19859 17.8083 3.80859 18.093 3.50699 18.4843C3.22114 18.8568 3.01145 19.2818 2.88988 19.7353C2.76832 20.1888 2.73726 20.6618 2.79849 21.1272C2.85179 21.5328 2.99349 21.8994 3.17549 22.2712C3.35099 22.6274 3.59149 23.0447 3.88139 23.5452L3.91389 23.6024C4.20249 24.1029 4.44429 24.5202 4.66529 24.8504C4.89539 25.1923 5.14239 25.5004 5.46739 25.7474C5.83972 26.0335 6.26476 26.2434 6.71824 26.3652C7.17171 26.487 7.64473 26.5183 8.11029 26.4572C8.59909 26.3922 9.04109 26.1972 9.50389 25.9515C9.67044 25.858 9.85804 25.8083 10.0491 25.8072C10.2401 25.8061 10.4282 25.8535 10.5959 25.945C10.7598 26.044 10.8957 26.1833 10.9906 26.3496C11.0855 26.516 11.1363 26.7038 11.138 26.8953C11.1575 27.4179 11.2082 27.8989 11.398 28.3539C11.5775 28.7878 11.8407 29.1821 12.1726 29.5142C12.5046 29.8463 12.8986 30.1098 13.3324 30.2896C13.7094 30.4456 14.0994 30.5067 14.5115 30.534C14.9067 30.5613 15.389 30.5613 15.9675 30.5613H16.0325C16.611 30.5613 17.0933 30.5613 17.4885 30.5353C17.9019 30.5067 18.2906 30.4456 18.6676 30.2883C19.1015 30.1088 19.4957 29.8456 19.8279 29.5137C20.16 29.1818 20.4235 28.7877 20.6033 28.3539C20.7918 27.8989 20.8425 27.4179 20.8633 26.8953C20.8652 26.704 20.9156 26.5163 21.01 26.3498C21.1044 26.1833 21.2396 26.0436 21.4028 25.9437C21.5708 25.8523 21.7592 25.805 21.9504 25.8064C22.1417 25.8077 22.3295 25.8577 22.4961 25.9515C22.9589 26.1959 23.4009 26.3922 23.8897 26.4559C24.8296 26.58 25.7802 26.3256 26.5326 25.7487C26.8576 25.4991 27.1046 25.1923 27.3347 24.8504C27.5557 24.5202 27.7975 24.1029 28.0861 23.6024L28.1186 23.5452C28.4085 23.0447 28.649 22.6274 28.8232 22.2712C29.0052 21.8994 29.1482 21.5315 29.2002 21.1272C29.3242 20.1873 29.0698 19.2367 28.493 18.4843C28.1927 18.093 27.8014 17.8083 27.3594 17.5301C27.1946 17.4327 27.0573 17.295 26.9604 17.1299C26.8636 16.9647 26.8103 16.7777 26.8056 16.5863C26.8056 16.2249 27.0032 15.8661 27.3594 15.6425C27.8014 15.3643 28.1914 15.0796 28.493 14.6883C28.7788 14.3159 28.9885 13.8908 29.1101 13.4373C29.2317 12.9839 29.2627 12.5109 29.2015 12.0454C29.1396 11.646 29.0122 11.2594 28.8245 10.9014C28.6025 10.4695 28.3671 10.0446 28.1186 9.62743L28.0861 9.57023C27.8486 9.14654 27.598 8.73034 27.3347 8.32223C27.1185 7.98113 26.8475 7.67806 26.5326 7.42523C26.1603 7.13915 25.7352 6.92923 25.2817 6.80744C24.8283 6.68565 24.3553 6.65438 23.8897 6.71543C23.4009 6.78043 22.9589 6.97543 22.4961 7.22113C22.3295 7.31454 22.1419 7.36414 21.9509 7.36527C21.7599 7.36641 21.5718 7.31905 21.4041 7.22763C21.2406 7.1282 21.105 6.98881 21.0102 6.82257C20.9153 6.65633 20.8643 6.4687 20.862 6.27733C20.8425 5.75473 20.7918 5.27373 20.602 4.81873C20.4225 4.38485 20.1592 3.99059 19.8273 3.65846C19.4954 3.32633 19.1013 3.06284 18.6676 2.88303C18.2906 2.72703 17.9006 2.66593 17.4885 2.63863C17.0933 2.61133 16.611 2.61133 16.0325 2.61133H15.9675ZM14.0786 4.68483C14.1787 4.64323 14.3308 4.60553 14.6441 4.58343C14.9652 4.56133 15.3812 4.56133 16 4.56133C16.6188 4.56133 17.0348 4.56133 17.3559 4.58343C17.6692 4.60553 17.8213 4.64323 17.9214 4.68483C18.3205 4.84993 18.6364 5.16583 18.8015 5.56493C18.8535 5.68973 18.8964 5.88603 18.9133 6.35013C18.9523 7.37973 19.484 8.37163 20.4278 8.91633C21.3716 9.46233 22.4961 9.42593 23.4074 8.94493C23.8182 8.72783 24.0093 8.66673 24.1445 8.64983C24.5716 8.59339 25.0037 8.70889 25.3457 8.97093C25.4315 9.03723 25.5407 9.15033 25.7162 9.41033C25.8969 9.67813 26.1049 10.0382 26.4143 10.5738C26.7237 11.1094 26.9304 11.4708 27.0721 11.7594C27.2112 12.0415 27.2541 12.1923 27.2671 12.3002C27.3235 12.7274 27.208 13.1594 26.946 13.5014C26.8628 13.6093 26.7146 13.7445 26.322 13.9915C25.4484 14.5401 24.8556 15.4969 24.8556 16.5863C24.8556 17.6757 25.4484 18.6325 26.322 19.1811C26.7146 19.4281 26.8628 19.5633 26.946 19.6712C27.2086 20.0131 27.323 20.4447 27.2671 20.8724C27.2541 20.9803 27.2099 21.1324 27.0721 21.4132C26.9304 21.7031 26.7237 22.0632 26.4143 22.5988C26.1049 23.1344 25.8956 23.4945 25.7162 23.7623C25.5407 24.0223 25.4315 24.1354 25.3457 24.2017C25.0037 24.4638 24.5716 24.5793 24.1445 24.5228C24.0093 24.5059 23.8195 24.4448 23.4074 24.2277C22.4974 23.7467 21.3716 23.7103 20.4278 24.255C19.484 24.801 18.9523 25.7929 18.9133 26.8225C18.8964 27.2866 18.8535 27.4829 18.8015 27.6077C18.7198 27.8051 18.6001 27.9844 18.449 28.1354C18.298 28.2864 18.1187 28.4062 17.9214 28.4878C17.8213 28.5294 17.6692 28.5671 17.3559 28.5892C17.0348 28.6113 16.6188 28.6113 16 28.6113C15.3812 28.6113 14.9652 28.6113 14.6441 28.5892C14.3308 28.5671 14.1787 28.5294 14.0786 28.4878C13.8813 28.4062 13.702 28.2864 13.5509 28.1354C13.3999 27.9844 13.2802 27.8051 13.1985 27.6077C13.1465 27.4829 13.1036 27.2866 13.0867 26.8225C13.0477 25.7929 12.516 24.801 11.5722 24.2563C10.6284 23.7103 9.50389 23.7467 8.59259 24.2277C8.18179 24.4448 7.99069 24.5059 7.85549 24.5228C7.42836 24.5793 6.99629 24.4638 6.65429 24.2017C6.56849 24.1354 6.45929 24.0223 6.28379 23.7623C6.03928 23.3817 5.80647 22.9937 5.58569 22.5988C5.27629 22.0632 5.06959 21.7018 4.92789 21.4132C4.78879 21.1311 4.74589 20.9803 4.73289 20.8724C4.67645 20.4453 4.79195 20.0132 5.05399 19.6712C5.13719 19.5633 5.28539 19.4281 5.67799 19.1811C6.55159 18.6325 7.14439 17.6757 7.14439 16.5863C7.14439 15.4969 6.55159 14.5401 5.67799 13.9915C5.28539 13.7445 5.13719 13.6093 5.05399 13.5014C4.79195 13.1594 4.67645 12.7274 4.73289 12.3002C4.74589 12.1923 4.79009 12.0402 4.92789 11.7594C5.06959 11.4695 5.27629 11.1094 5.58569 10.5738C5.89509 10.0382 6.10439 9.67813 6.28379 9.41033C6.45929 9.15033 6.56849 9.03723 6.65429 8.97093C6.99629 8.70889 7.42836 8.59339 7.85549 8.64983C7.99069 8.66673 8.18049 8.72783 8.59259 8.94493C9.50259 9.42593 10.6284 9.46233 11.5722 8.91633C12.516 8.37163 13.0477 7.37973 13.0867 6.35013C13.1036 5.88603 13.1465 5.68973 13.1985 5.56493C13.3636 5.16583 13.6795 4.84993 14.0786 4.68483Z" />
	</symbol>

	<symbol viewBox="0 0 32 32" id="exit">
		<path
			d="M5.59999 16.2808C5.59999 16.6255 5.73696 16.9562 5.98075 17.2C6.22455 17.4438 6.55521 17.5808 6.89999 17.5808H16.767L13.777 20.5578C13.6551 20.6786 13.5584 20.8224 13.4924 20.9808C13.4264 21.1392 13.3925 21.3091 13.3925 21.4808C13.3925 21.6524 13.4264 21.8223 13.4924 21.9807C13.5584 22.1391 13.6551 22.2829 13.777 22.4038C13.8978 22.5256 14.0416 22.6223 14.2 22.6883C14.3585 22.7543 14.5284 22.7883 14.7 22.7883C14.8716 22.7883 15.0415 22.7543 15.1999 22.6883C15.3584 22.6223 15.5021 22.5256 15.623 22.4038L20.823 17.2038C20.9413 17.0801 21.0341 16.9343 21.096 16.7748C21.226 16.4583 21.226 16.1033 21.096 15.7868C21.0341 15.6272 20.9413 15.4814 20.823 15.3578L15.623 10.1578C15.5018 10.0366 15.3579 9.9404 15.1995 9.87481C15.0411 9.80921 14.8714 9.77544 14.7 9.77544C14.5286 9.77544 14.3588 9.80921 14.2005 9.87481C14.0421 9.9404 13.8982 10.0366 13.777 10.1578C13.6558 10.279 13.5596 10.4229 13.494 10.5812C13.4284 10.7396 13.3947 10.9093 13.3947 11.0808C13.3947 11.2522 13.4284 11.4219 13.494 11.5803C13.5596 11.7387 13.6558 11.8826 13.777 12.0038L16.767 14.9808H6.89999C6.55521 14.9808 6.22455 15.1177 5.98075 15.3615C5.73696 15.6053 5.59999 15.936 5.59999 16.2808ZM22.5 3.28076H9.49999C8.46565 3.28076 7.47367 3.69165 6.74227 4.42305C6.01088 5.15444 5.59999 6.14642 5.59999 7.18076V11.0808C5.59999 11.4255 5.73696 11.7562 5.98075 12C6.22455 12.2438 6.55521 12.3808 6.89999 12.3808C7.24477 12.3808 7.57543 12.2438 7.81923 12C8.06303 11.7562 8.19999 11.4255 8.19999 11.0808V7.18076C8.19999 6.83598 8.33696 6.50532 8.58075 6.26152C8.82455 6.01773 9.15521 5.88076 9.49999 5.88076H22.5C22.8448 5.88076 23.1754 6.01773 23.4192 6.26152C23.663 6.50532 23.8 6.83598 23.8 7.18076V25.3808C23.8 25.7255 23.663 26.0562 23.4192 26.3C23.1754 26.5438 22.8448 26.6808 22.5 26.6808H9.49999C9.15521 26.6808 8.82455 26.5438 8.58075 26.3C8.33696 26.0562 8.19999 25.7255 8.19999 25.3808V21.4808C8.19999 21.136 8.06303 20.8053 7.81923 20.5615C7.57543 20.3177 7.24477 20.1808 6.89999 20.1808C6.55521 20.1808 6.22455 20.3177 5.98075 20.5615C5.73696 20.8053 5.59999 21.136 5.59999 21.4808V25.3808C5.59999 26.4151 6.01088 27.4071 6.74227 28.1385C7.47367 28.8699 8.46565 29.2808 9.49999 29.2808H22.5C23.5343 29.2808 24.5263 28.8699 25.2577 28.1385C25.9891 27.4071 26.4 26.4151 26.4 25.3808V7.18076C26.4 6.14642 25.9891 5.15444 25.2577 4.42305C24.5263 3.69165 23.5343 3.28076 22.5 3.28076Z" />
	</symbol>

	<symbol viewBox="0 0 32 32" id="drawer-logo">
		<path fill-rule="evenodd" clip-rule="evenodd"
			d="M28 8.53174H21.2904L21.1195 9.30598C21.066 9.56158 21.0036 9.8157 20.9441 10.0758C20.8253 10.6018 20.7183 11.113 20.5949 11.6302L19.8994 14.7286C19.898 14.7257 19.8965 14.7182 19.895 14.7197C19.895 14.7212 19.892 14.7138 19.8905 14.7108C19.8905 14.7093 19.8876 14.7049 19.8876 14.7019L18.4059 9.31638C18.3688 9.18264 18.3376 9.05186 18.2989 8.92406C18.2603 8.79477 18.2232 8.66251 18.192 8.53174H13.808L13.597 9.30598C13.3667 10.1902 13.0933 11.1264 12.851 12.0136C12.8154 12.1488 12.7827 12.2796 12.7455 12.4074L12.1006 14.7286L11.0573 10.0862C11.0009 9.8261 10.937 9.56901 10.8835 9.31638C10.8537 9.17966 10.827 9.06672 10.7958 8.93149C10.7794 8.85867 10.7705 8.80815 10.7542 8.73682C10.7378 8.66846 10.7141 8.6001 10.7096 8.53174H4C4 8.61347 4.06836 8.90028 4.08916 8.99539L4.7683 12.2543C4.79653 12.2959 5.24681 12.2737 5.30031 12.2737C6.61697 12.2737 7.93362 12.2737 9.25176 12.2737C9.24285 12.2826 9.24433 12.2811 9.22947 12.29L8.1922 12.7373C8.11195 12.7715 7.16978 13.1876 7.11183 13.1935C7.11331 13.2693 7.15789 13.4254 7.17424 13.4982C7.1995 13.6007 7.21882 13.6958 7.2426 13.7969C7.29015 13.9975 7.33474 14.1922 7.37783 14.3972C7.46105 14.794 7.56656 15.2027 7.65127 15.6069L8.2665 18.3264C8.29176 18.4245 8.31257 18.527 8.33337 18.6266C8.53697 19.6059 8.80743 20.6655 9.01845 21.6582L9.2904 22.8693H14.9241L15.5898 19.3206C15.685 18.7589 15.8142 18.1243 15.9242 17.5551L16.0134 17.1836C16.0134 17.359 17.0759 22.6865 17.0759 22.8693H22.7096L23.6042 18.9075C23.6562 18.6905 23.6978 18.4661 23.7543 18.2417L25.0992 12.287H26.3326C26.4872 12.287 26.5927 12.2737 26.7398 12.2737C27.3001 12.2751 27.2213 12.3108 27.2525 12.1696C27.2644 12.1146 27.2778 12.0463 27.2882 11.9943C27.3342 11.7595 27.3863 11.5277 27.4323 11.2988C27.6017 10.4428 27.7994 9.5705 27.9703 8.71304C27.9837 8.64319 28 8.6105 28 8.53174Z" />
	</symbol>

	<symbol viewBox="0 0 23 23" id="nav-tab-bar">
		<path
			d="M1.53967 10.3848H6.53967C6.87119 10.3848 7.18914 10.5165 7.42356 10.7509C7.65798 10.9853 7.78967 11.3032 7.78967 11.6348V21.6348C7.78967 21.9663 7.65798 22.2842 7.42356 22.5187C7.18914 22.7531 6.87119 22.8848 6.53967 22.8848H4.03967C3.08316 22.8848 2.16278 22.5194 1.46685 21.8632C0.770914 21.207 0.352038 20.3096 0.295923 19.3548L0.289673 19.1348V11.6348C0.289673 11.3032 0.421369 10.9853 0.655789 10.7509C0.89021 10.5165 1.20815 10.3848 1.53967 10.3848ZM22.7897 11.6348V19.1348C22.7897 20.0913 22.4243 21.0117 21.7681 21.7076C21.1119 22.4035 20.2145 22.8224 19.2597 22.8785L19.0397 22.8848H11.5397C11.2082 22.8848 10.8902 22.7531 10.6558 22.5187C10.4214 22.2842 10.2897 21.9663 10.2897 21.6348V11.6348C10.2897 11.3032 10.4214 10.9853 10.6558 10.7509C10.8902 10.5165 11.2082 10.3848 11.5397 10.3848H21.5397C21.8712 10.3848 22.1891 10.5165 22.4236 10.7509C22.658 10.9853 22.7897 11.3032 22.7897 11.6348ZM19.0397 0.384766C19.9962 0.384712 20.9166 0.750172 21.6125 1.40637C22.3084 2.06257 22.7273 2.9599 22.7834 3.91477L22.7897 4.13477V6.63477C22.7897 6.96629 22.658 7.28423 22.4236 7.51865C22.1891 7.75307 21.8712 7.88477 21.5397 7.88477H11.5397C11.2082 7.88477 10.8902 7.75307 10.6558 7.51865C10.4214 7.28423 10.2897 6.96629 10.2897 6.63477V1.63477C10.2897 1.30325 10.4214 0.985303 10.6558 0.750882C10.8902 0.516462 11.2082 0.384766 11.5397 0.384766H19.0397ZM7.78967 1.63477V6.63477C7.78967 6.96629 7.65798 7.28423 7.42356 7.51865C7.18914 7.75307 6.87119 7.88477 6.53967 7.88477H1.53967C1.20815 7.88477 0.89021 7.75307 0.655789 7.51865C0.421369 7.28423 0.289673 6.96629 0.289673 6.63477V4.13477C0.28962 3.17825 0.655079 2.25787 1.31128 1.56194C1.96748 0.866007 2.86481 0.447131 3.81967 0.391016L4.03967 0.384766H6.53967C6.87119 0.384766 7.18914 0.516462 7.42356 0.750882C7.65798 0.985303 7.78967 1.30325 7.78967 1.63477Z" />
	</symbol>
	<symbol viewBox="0 0 31 31" id="nav-tab-list">
		<line x1="4.60217" y1="9.07227" x2="26.4772" y2="9.07227" stroke-width="3.125"
			stroke-linecap="round" />
		<line x1="4.60217" y1="15.3223" x2="26.4772" y2="15.3223" stroke-width="3.125"
			stroke-linecap="round" />
		<line x1="4.60217" y1="21.5723" x2="26.4772" y2="21.5723" stroke-width="3.125"
			stroke-linecap="round" />
	</symbol>

	<symbol viewBox="0 0 13 13" id="plus">
		<path
			d="M12.5 5.89892V7.17816H0.5V5.89892H12.5ZM7.17335 0.634766V12.6348H5.73046V0.634766H7.17335Z" />
	</symbol>

	<symbol viewBox="0 0 32 31" id="select-arrow">
		<path
			d="M21.8378 11.2701L15.9626 17.1325L10.0874 11.2701L8.28258 13.0749L15.9626 20.7549L23.6426 13.0749L21.8378 11.2701Z" />
	</symbol>

	<symbol viewBox="0 0 25 26" id="celendar">
		<path fill-rule="evenodd" clip-rule="evenodd"
			d="M3.84375 2.53027H1.31686C0.619242 2.53027 0.0537109 3.0958 0.0537109 3.79342V24.0036C0.0537109 24.7012 0.619242 25.2668 1.31686 25.2668H22.7906C23.4882 25.2668 24.0537 24.7012 24.0537 24.0036V3.79342C24.0537 3.0958 23.4882 2.53027 22.7906 2.53027H20.2648V2.5303C20.2648 3.92552 19.1337 5.05658 17.7385 5.05658C16.3432 5.05658 15.2122 3.92552 15.2122 2.5303V2.53027H8.89638V2.5303C8.89638 3.92552 7.76531 5.05658 6.37007 5.05658C4.97482 5.05658 3.84375 3.92552 3.84375 2.5303V2.53027ZM2.58008 7.51333C2.58008 6.85444 3.11421 6.32031 3.77309 6.32031H20.3344C20.9933 6.32031 21.5274 6.85444 21.5274 7.51333V21.5481C21.5274 22.207 20.9933 22.7411 20.3344 22.7411H3.77309C3.11421 22.7411 2.58008 22.207 2.58008 21.5481V7.51333Z" />
		<rect x="5.10547" y="0.00244141" width="2.52632" height="3.78942" rx="1.26316" />
		<rect x="16.4746" y="0.00244141" width="2.52632" height="3.78942" rx="1.26316" />
		<rect x="5.10449" y="8.84326" width="3.20648" height="3.20643" rx="0.641291" />
		<rect x="5.10449" y="13.1177" width="3.20648" height="3.20643" rx="0.641291" />
		<rect x="5.10449" y="17.394" width="3.20648" height="3.20643" rx="0.641291" />
		<rect x="10.4482" y="17.394" width="3.20648" height="3.20643" rx="0.641291" />
		<rect x="10.4482" y="13.1196" width="3.20648" height="3.20643" rx="0.641291" />
		<rect x="15.793" y="13.1196" width="3.20648" height="3.20643" rx="0.641291" />
		<rect x="10.4482" y="8.84326" width="3.20648" height="3.20643" rx="0.641291" />
		<rect x="15.793" y="8.84326" width="3.20648" height="3.20643" rx="0.641291" />
	</symbol>

	<symbol viewBox="0 0 30 30" id="arrow-prev">
		<path
			d="M19.081 9.12706L13.585 14.6351L19.081 20.1431L17.389 21.8351L10.189 14.6351L17.389 7.43506L19.081 9.12706Z" />
	</symbol>
	<symbol viewBox="0 0 30 30" id="arrow-next">
		<path
			d="M10.8971 9.12706L16.3931 14.6351L10.8971 20.1431L12.5891 21.8351L19.7891 14.6351L12.5891 7.43506L10.8971 9.12706Z" />
	</symbol>

	<symbol viewBox="0 0 14 15" id="pen">
		<path
			d="M0.388864 14.6513H13.6067C13.7105 14.6513 13.8099 14.6101 13.8833 14.5367C13.9566 14.4634 13.9978 14.3639 13.9978 14.2602C13.9978 14.1565 13.9566 14.057 13.8833 13.9837C13.8099 13.9103 13.7105 13.8691 13.6067 13.8691H0.388864C0.285148 13.8691 0.18568 13.9103 0.112342 13.9837C0.0390036 14.057 -0.00219727 14.1565 -0.00219727 14.2602C-0.00219727 14.3639 0.0390036 14.4634 0.112342 14.5367C0.18568 14.6101 0.285148 14.6513 0.388864 14.6513ZM5.20831 11.712C5.53867 11.6196 5.84011 11.4446 6.08428 11.2037L13.5457 3.74221C13.8013 3.48568 13.9447 3.13836 13.9447 2.77629C13.9447 2.41421 13.8013 2.06689 13.5457 1.81037L12.8105 1.08299C12.5504 0.834475 12.2044 0.695801 11.8446 0.695801C11.4848 0.695801 11.1389 0.834475 10.8787 1.08299L3.41724 8.53662C3.17583 8.77919 3.0031 9.08147 2.91669 9.4126L2.33791 11.5713C2.31046 11.6699 2.30975 11.774 2.33587 11.873C2.36198 11.9719 2.41398 12.0622 2.48652 12.1344C2.59722 12.2432 2.74581 12.3049 2.90104 12.3065L5.20831 11.712ZM5.52898 10.6484C5.38479 10.7951 5.2038 10.9005 5.00495 10.9534L4.24629 11.1567L3.46417 10.3746L3.66752 9.61595C3.72223 9.41786 3.82732 9.23732 3.97255 9.09193L4.26976 8.80254L5.82618 10.359L5.52898 10.6484ZM6.38149 9.80366L4.82507 8.24724L10.0888 2.98355L11.6452 4.53997L6.38149 9.80366ZM12.9904 3.19472L12.2005 3.98467L10.6441 2.42824L11.434 1.63048C11.4884 1.5759 11.553 1.53259 11.6241 1.50304C11.6952 1.47349 11.7715 1.45828 11.8485 1.45828C11.9256 1.45828 12.0018 1.47349 12.073 1.50304C12.1441 1.53259 12.2087 1.5759 12.2631 1.63048L12.9904 2.36567C13.0995 2.47606 13.1607 2.625 13.1607 2.7802C13.1607 2.93539 13.0995 3.08434 12.9904 3.19472Z" />
	</symbol>

	<symbol viewBox="0 0 29 29" id="close-modal">
		<path
			d="M21.9599 7.05237C21.8489 6.94112 21.717 6.85286 21.5719 6.79265C21.4267 6.73243 21.2711 6.70143 21.1139 6.70143C20.9568 6.70143 20.8011 6.73243 20.656 6.79265C20.5108 6.85286 20.3789 6.94112 20.2679 7.05237L14.3999 12.9084L8.53193 7.04037C8.42083 6.92927 8.28894 6.84114 8.14378 6.78101C7.99862 6.72089 7.84304 6.68994 7.68593 6.68994C7.52881 6.68994 7.37323 6.72089 7.22807 6.78101C7.08292 6.84114 6.95102 6.92927 6.83993 7.04037C6.72883 7.15146 6.6407 7.28336 6.58057 7.42851C6.52045 7.57367 6.4895 7.72925 6.4895 7.88637C6.4895 8.04348 6.52045 8.19906 6.58057 8.34422C6.6407 8.48938 6.72883 8.62127 6.83993 8.73237L12.7079 14.6004L6.83993 20.4684C6.72883 20.5795 6.6407 20.7114 6.58057 20.8565C6.52045 21.0017 6.4895 21.1572 6.4895 21.3144C6.4895 21.4715 6.52045 21.6271 6.58057 21.7722C6.6407 21.9174 6.72883 22.0493 6.83993 22.1604C6.95102 22.2715 7.08292 22.3596 7.22807 22.4197C7.37323 22.4798 7.52881 22.5108 7.68593 22.5108C7.84304 22.5108 7.99862 22.4798 8.14378 22.4197C8.28894 22.3596 8.42083 22.2715 8.53193 22.1604L14.3999 16.2924L20.2679 22.1604C20.379 22.2715 20.5109 22.3596 20.6561 22.4197C20.8012 22.4798 20.9568 22.5108 21.1139 22.5108C21.271 22.5108 21.4266 22.4798 21.5718 22.4197C21.7169 22.3596 21.8488 22.2715 21.9599 22.1604C22.071 22.0493 22.1592 21.9174 22.2193 21.7722C22.2794 21.6271 22.3104 21.4715 22.3104 21.3144C22.3104 21.1572 22.2794 21.0017 22.2193 20.8565C22.1592 20.7114 22.071 20.5795 21.9599 20.4684L16.0919 14.6004L21.9599 8.73237C22.4159 8.27637 22.4159 7.50837 21.9599 7.05237Z"
			fill="#9E9E9E" />
	</symbol>
	<symbol viewBox="0 0 32 32" id="close-modal-out">
		<path
			d="M24.4 7.61381C24.2766 7.49021 24.1301 7.39215 23.9688 7.32524C23.8075 7.25833 23.6346 7.22389 23.46 7.22389C23.2854 7.22389 23.1125 7.25833 22.9512 7.32524C22.7899 7.39215 22.6433 7.49021 22.52 7.61381L16 14.1205L9.47999 7.60048C9.35655 7.47704 9.21 7.37912 9.04872 7.31231C8.88743 7.24551 8.71457 7.21112 8.53999 7.21112C8.36542 7.21112 8.19255 7.24551 8.03127 7.31231C7.86998 7.37912 7.72344 7.47704 7.59999 7.60048C7.47655 7.72392 7.37863 7.87047 7.31182 8.03176C7.24502 8.19304 7.21063 8.36591 7.21063 8.54048C7.21063 8.71506 7.24502 8.88792 7.31182 9.04921C7.37863 9.21049 7.47655 9.35704 7.59999 9.48048L14.12 16.0005L7.59999 22.5205C7.47655 22.6439 7.37863 22.7905 7.31182 22.9518C7.24502 23.113 7.21063 23.2859 7.21063 23.4605C7.21063 23.6351 7.24502 23.8079 7.31182 23.9692C7.37863 24.1305 7.47655 24.277 7.59999 24.4005C7.72344 24.5239 7.86998 24.6218 8.03127 24.6887C8.19255 24.7555 8.36542 24.7898 8.53999 24.7898C8.71457 24.7898 8.88743 24.7555 9.04872 24.6887C9.21 24.6218 9.35655 24.5239 9.47999 24.4005L16 17.8805L22.52 24.4005C22.6434 24.5239 22.79 24.6218 22.9513 24.6887C23.1126 24.7555 23.2854 24.7898 23.46 24.7898C23.6346 24.7898 23.8074 24.7555 23.9687 24.6887C24.13 24.6218 24.2765 24.5239 24.4 24.4005C24.5234 24.277 24.6214 24.1305 24.6882 23.9692C24.755 23.8079 24.7894 23.6351 24.7894 23.4605C24.7894 23.2859 24.755 23.113 24.6882 22.9518C24.6214 22.7905 24.5234 22.6439 24.4 22.5205L17.88 16.0005L24.4 9.48048C24.9067 8.97381 24.9067 8.12048 24.4 7.61381Z" />
	</symbol>

	<symbol viewBox="0 0 25 25" id="map-icon">
		<path fill-rule="evenodd" clip-rule="evenodd"
			d="M17.657 4.15625C16.1567 2.61805 14.1219 1.75391 12.0001 1.75391C9.87839 1.75391 7.84356 2.61805 6.34327 4.15625C4.84298 5.69444 4.00012 7.78068 4.00012 9.95601C4.00012 13.3445 6.27202 19.0997 10.7537 23.1208L11.0638 23.3968C11.3242 23.6269 11.6564 23.7536 12.0001 23.7539C12.3439 23.7542 12.6763 23.6281 12.937 23.3984C17.6263 19.2696 20.0001 13.4219 20.0001 9.95601C20.0001 7.78068 19.1573 5.69444 17.657 4.15625ZM12.0001 14.9539C14.6511 14.9539 16.8001 12.7377 16.8001 10.0039C16.8001 7.2701 14.6511 5.05391 12.0001 5.05391C9.34915 5.05391 7.20012 7.2701 7.20012 10.0039C7.20012 12.7377 9.34915 14.9539 12.0001 14.9539Z" />
	</symbol>

	<symbol viewBox="0 0 24 24" id="check-step">
		<path
			d="M10 15.586L6.707 12.293L5.293 13.70710 18.414L19.707 8.70697L18.293 7.29297L10 15.586Z"
			fill="white" />
	</symbol>

	<symbol viewBox="0 0 16 16" id="user">
		<path
			d="M8.00081 8.00008C9.47415 8.00008 10.6675 6.80675 10.6675 5.33341C10.6675 3.86008 9.47415 2.66675 8.00081 2.66675C6.52748 2.66675 5.33415 3.86008 5.33415 5.33341C5.33415 6.80675 6.52748 8.00008 8.00081 8.00008ZM8.00081 9.33341C6.22081 9.33341 2.66748 10.2267 2.66748 12.0001V13.3334H13.3341V12.0001C13.3341 10.2267 9.78081 9.33341 8.00081 9.33341Z" />
	</symbol>

	<symbol viewBox="0 0 14 3" id="minus-btn">
		<path d="M0.499248 2.4845V0.270752H13.8255V2.4845H0.499248Z" fill="#5B89F8" />
	</symbol>
	<symbol viewBox="0 0 14 16" id="plus-btn">
		<path
			d="M0.365611 9.48635V6.75695H13.9679V9.48635H0.365611ZM5.69019 15.3329V0.89544H8.64331V15.3329H5.69019Z"
			fill="#5B89F8" />
	</symbol>

	<symbol viewBox="0 0 14 16" id="plusik">
		<path
			d="M0.365611 9.48635V6.75695H13.9679V9.48635H0.365611ZM5.69019 15.3329V0.89544H8.64331V15.3329H5.69019Z" />
	</symbol>

	<symbol viewBox="0 0 32 32" id="loop">
		<path
			d="M12.6667 4C14.9652 4 17.1696 4.91309 18.7949 6.53841C20.4202 8.16372 21.3333 10.3681 21.3333 12.6667C21.3333 14.8133 20.5467 16.7867 19.2533 18.3067L19.6133 18.6667H20.6667L27.3333 25.3333L25.3333 27.3333L18.6667 20.6667V19.6133L18.3067 19.2533C16.7341 20.5957 14.7343 21.3332 12.6667 21.3333C10.3681 21.3333 8.16372 20.4202 6.53841 18.7949C4.91309 17.1696 4 14.9652 4 12.6667C4 10.3681 4.91309 8.16372 6.53841 6.53841C8.16372 4.91309 10.3681 4 12.6667 4ZM12.6667 6.66667C9.33333 6.66667 6.66667 9.33333 6.66667 12.6667C6.66667 16 9.33333 18.6667 12.6667 18.6667C16 18.6667 18.6667 16 18.6667 12.6667C18.6667 9.33333 16 6.66667 12.6667 6.66667Z" />
	</symbol>

	<symbol viewBox="0 0 25 24" id="card-ico">
		<path
			d="M23.3985 0.75H22.3436V1.086C20.8751 1.4145 20.664 2.77762 20.5811 3.2985C20.5417 3.54487 20.4619 4.02675 20.3629 4.617H1.99536C1.26861 4.617 1.18723 5.29612 1.28211 5.67188L3.43686 15.1845C3.53136 15.5603 3.92923 15.867 4.31923 15.867H20.4232C20.811 15.867 21.1271 16.1824 21.1271 16.5701C21.1271 16.9579 20.811 17.2733 20.4232 17.2733H2.84548C2.659 17.2733 2.48016 17.3473 2.3483 17.4792C2.21644 17.6111 2.14236 17.7899 2.14236 17.9764C2.14236 18.1629 2.21644 18.3417 2.3483 18.4736C2.48016 18.6054 2.659 18.6795 2.84548 18.6795H3.75673C3.31675 18.9224 2.94995 19.2789 2.69457 19.7117C2.43919 20.1446 2.30457 20.638 2.30473 21.1406H3.00786C3.00786 22.305 3.95286 23.25 5.11723 23.25C6.28161 23.25 7.22661 22.305 7.22661 21.1406H7.92973C7.92982 20.638 7.79512 20.1446 7.53968 19.7117C7.28424 19.2788 6.91739 18.9224 6.47736 18.6795H16.4126C15.9726 18.9224 15.6057 19.2788 15.3503 19.7117C15.0948 20.1446 14.9601 20.638 14.9602 21.1406H15.6634C15.6738 21.6933 15.9006 22.2198 16.2952 22.6069C16.6897 22.9941 17.2204 23.211 17.7731 23.211C18.3259 23.211 18.8565 22.9941 19.2511 22.6069C19.6456 22.2198 19.8724 21.6933 19.8829 21.1406H20.586C20.586 20.6381 20.4514 20.1447 20.196 19.7118C19.9406 19.279 19.5739 18.9225 19.134 18.6795H20.424C20.9833 18.6792 21.5197 18.4569 21.9152 18.0613C22.3107 17.6658 22.5331 17.1295 22.5334 16.5701C22.5333 16.2931 22.4787 16.0187 22.3726 15.7628C22.2665 15.5068 22.1111 15.2743 21.9152 15.0784C21.7192 14.8825 21.4866 14.7272 21.2306 14.6212C20.9746 14.5152 20.7003 14.4607 20.4232 14.4608H20.1619L21.0611 8.8695C21.3116 7.39275 21.8516 4.20262 21.9784 3.40912C22.0421 3.00825 22.104 2.72662 22.3436 2.56875V2.859H23.3985C23.4915 2.8587 23.5807 2.82164 23.6465 2.75589C23.7123 2.69014 23.7495 2.60103 23.7499 2.508V1.10175C23.7497 1.00859 23.7126 0.919288 23.6467 0.853376C23.5809 0.787464 23.4916 0.750297 23.3985 0.75ZM5.11723 22.1955C4.83755 22.1952 4.56942 22.084 4.37165 21.8862C4.17389 21.6884 4.06266 21.4203 4.06236 21.1406H6.17173C6.17144 21.4202 6.06025 21.6883 5.86257 21.8861C5.66489 22.0838 5.39685 22.1951 5.11723 22.1955ZM17.7735 22.1955C17.4937 22.1953 17.2255 22.0841 17.0277 21.8863C16.8298 21.6886 16.7185 21.4204 16.7182 21.1406H18.8284C18.8279 21.4202 18.7166 21.6883 18.5188 21.886C18.3211 22.0837 18.0531 22.195 17.7735 22.1955ZM16.9084 6.37275C16.9207 6.27744 16.9669 6.18974 17.0385 6.1256C17.1101 6.06146 17.2023 6.02514 17.2984 6.02325H19.5247C19.7182 6.02325 19.8529 6.17925 19.8225 6.37088L19.602 7.785C19.5727 7.97625 19.3894 8.13263 19.1955 8.13263H17.0719C17.0271 8.13381 16.9827 8.12529 16.9416 8.10766C16.9005 8.09003 16.8637 8.06371 16.8337 8.0305C16.8037 7.99728 16.7813 7.95797 16.768 7.91527C16.7546 7.87257 16.7507 7.82749 16.7565 7.78312L16.9084 6.37275ZM16.53 9.88837C16.5426 9.79316 16.5888 9.70559 16.6603 9.6415C16.7319 9.5774 16.824 9.541 16.92 9.53888H18.9761C19.17 9.53888 19.3042 9.69487 19.275 9.8865L19.1089 10.9493C19.0792 11.1405 18.8962 11.2969 18.7024 11.2969H16.731C16.6863 11.2979 16.6419 11.2893 16.6009 11.2717C16.5598 11.254 16.5231 11.2277 16.4931 11.1945C16.4632 11.1613 16.4407 11.122 16.4274 11.0794C16.414 11.0367 16.41 10.9917 16.4156 10.9474L16.53 9.88837ZM3.07461 7.79138L2.71836 6.3645C2.67186 6.17625 2.79261 6.02325 2.98648 6.02325H5.63361C5.82786 6.02325 6.00298 6.18037 6.02361 6.37275L6.17511 7.7835C6.18073 7.82781 6.17673 7.87281 6.16337 7.91542C6.15002 7.95804 6.12762 7.99728 6.09772 8.03046C6.06782 8.06363 6.03112 8.08997 5.99011 8.10766C5.9491 8.12536 5.90476 8.134 5.86011 8.133H3.51223C3.31873 8.133 3.12148 7.97888 3.07461 7.79138ZM4.30123 11.2969C4.10773 11.2969 3.91048 11.1431 3.86398 10.9556L3.59548 9.8805C3.54861 9.69225 3.66861 9.53925 3.86248 9.53925H6.01086C6.20473 9.53925 6.38023 9.69637 6.40086 9.88875L6.51486 10.9478C6.52055 10.9921 6.51659 11.0371 6.50326 11.0797C6.48992 11.1224 6.46754 11.1616 6.43762 11.1948C6.40771 11.228 6.37097 11.2544 6.32994 11.272C6.2889 11.2897 6.24453 11.2983 6.19986 11.2972L4.30123 11.2969ZM6.53961 14.4611H5.09023C4.89561 14.4611 4.69948 14.3074 4.65261 14.1199L4.38411 13.0448C4.33761 12.8565 4.45761 12.7035 4.65186 12.7035H6.35061C6.54448 12.7035 6.71998 12.8606 6.74136 13.053L6.85461 14.112C6.8603 14.1563 6.85634 14.2013 6.84301 14.2439C6.82968 14.2866 6.80728 14.3258 6.77736 14.359C6.74744 14.3921 6.7107 14.4184 6.66966 14.4361C6.62863 14.4537 6.58426 14.4622 6.53961 14.4611ZM10.8491 14.1094C10.8487 14.2027 10.8114 14.292 10.7454 14.3579C10.6793 14.4238 10.5899 14.4609 10.4966 14.4611H8.66248C8.56646 14.4591 8.47433 14.4228 8.40284 14.3587C8.33135 14.2945 8.28523 14.2069 8.27286 14.1116L8.15886 13.0526C8.15305 13.0083 8.15691 12.9633 8.17017 12.9206C8.18343 12.8779 8.20578 12.8386 8.23568 12.8054C8.26558 12.7722 8.30231 12.7459 8.34337 12.7282C8.38442 12.7105 8.42881 12.702 8.47348 12.7031H10.4966C10.59 12.7031 10.6795 12.7402 10.7456 12.8061C10.8117 12.872 10.8489 12.9615 10.8491 13.0549V14.1094ZM10.8491 10.9455C10.8487 11.0388 10.8114 11.1281 10.7454 11.1941C10.6793 11.26 10.5899 11.2971 10.4966 11.2972H8.32236C8.12886 11.2972 7.95411 11.1401 7.93236 10.9478L7.81911 9.88875C7.81336 9.84445 7.81727 9.79944 7.83055 9.75679C7.84384 9.71414 7.86619 9.67487 7.89608 9.64167C7.92596 9.60847 7.96267 9.58213 8.0037 9.56445C8.04472 9.54677 8.08908 9.53818 8.13373 9.53925H10.4966C10.59 9.53925 10.6795 9.57629 10.7456 9.64223C10.8117 9.70817 10.8489 9.79764 10.8491 9.891V10.9455ZM10.8491 7.78125C10.8487 7.87455 10.8114 7.9639 10.7454 8.0298C10.6793 8.0957 10.5899 8.1328 10.4966 8.133H7.98336C7.88727 8.13111 7.79505 8.09479 7.72348 8.03065C7.65191 7.96651 7.60574 7.87881 7.59336 7.7835L7.44186 6.37275C7.43617 6.32843 7.44013 6.28341 7.45346 6.24076C7.46679 6.19811 7.48918 6.15885 7.5191 6.12566C7.54901 6.09247 7.58574 6.06613 7.62678 6.04846C7.66782 6.03078 7.71219 6.02218 7.75686 6.02325H10.497C10.5903 6.02325 10.6799 6.06029 10.746 6.12623C10.8121 6.19217 10.8493 6.28164 10.8495 6.375V7.78125H10.8491ZM14.6587 14.1116C14.6463 14.2069 14.6001 14.2946 14.5285 14.3587C14.457 14.4228 14.3648 14.4592 14.2687 14.4611H12.6112C12.518 14.4609 12.4286 14.4238 12.3626 14.3579C12.2966 14.292 12.2594 14.2026 12.2591 14.1094V13.0545C12.2593 12.9612 12.2965 12.8718 12.3625 12.8059C12.4285 12.7399 12.5179 12.7028 12.6112 12.7028H14.4577C14.6512 12.7028 14.7937 12.8599 14.7727 13.0522L14.6587 14.1116ZM14.9985 10.9474C14.986 11.0427 14.9398 11.1303 14.8683 11.1944C14.7967 11.2586 14.7045 11.2949 14.6085 11.2969H12.6112C12.518 11.2967 12.4286 11.2596 12.3626 11.1937C12.2966 11.1277 12.2594 11.0384 12.2591 10.9451V9.89025C12.2593 9.79696 12.2965 9.70755 12.3625 9.64161C12.4285 9.57568 12.5179 9.5386 12.6112 9.5385H14.7975C14.9914 9.5385 15.1335 9.69563 15.1121 9.888L14.9985 10.9474ZM15.3382 7.7835C15.3258 7.87878 15.2796 7.96643 15.208 8.03056C15.1365 8.09468 15.0443 8.13103 14.9482 8.133H12.6112C12.518 8.1328 12.4286 8.09569 12.3626 8.02978C12.2966 7.96387 12.2594 7.87451 12.2591 7.78125V6.375C12.2593 6.28171 12.2965 6.1923 12.3625 6.12636C12.4285 6.06043 12.5179 6.02335 12.6112 6.02325H15.1751C15.369 6.02325 15.5111 6.18037 15.4905 6.37275L15.3382 7.7835ZM18.0502 14.4611V14.4585L18.0472 14.4611H16.3912C16.3804 14.4611 16.371 14.4559 16.3601 14.4544C16.3582 14.4416 16.3582 14.4289 16.356 14.4154L16.3395 14.4499C16.3441 14.4511 16.3487 14.4521 16.3534 14.4529C16.1805 14.433 16.0567 14.2901 16.0766 14.1116L16.1899 13.0526C16.2025 12.9574 16.2487 12.8698 16.3202 12.8057C16.3917 12.7416 16.4838 12.7052 16.5799 12.7031H18.4834C18.6772 12.7031 18.8107 12.8591 18.7815 13.0507L18.6154 14.1135C18.5865 14.3048 18.4035 14.4611 18.2096 14.4611H18.0502Z" />
	</symbol>

	<symbol viewBox="0 0 24 24" id="arrow-right">
		<path d="M9.645 5L8 6.645L13.3433 12L8 17.355L9.645 19L16.645 12L9.645 5Z" />
	</symbol>

	<symbol viewBox="0 0 24 24" id="sert-ico">
		<path
			d="M20.75 6.93869H16.8819C17.0804 6.81407 17.2685 6.67362 17.4444 6.51869C17.7096 6.28237 17.9233 5.9939 18.072 5.67128C18.2207 5.34867 18.3013 4.99886 18.3088 4.64369C18.3203 4.25299 18.2519 3.86406 18.1078 3.50071C17.9637 3.13736 17.747 2.80725 17.4709 2.5306C17.1947 2.25395 16.865 2.03659 16.502 1.89182C16.1389 1.74705 15.7501 1.67793 15.3594 1.68869C15.0042 1.69613 14.6544 1.77673 14.3318 1.92546C14.0092 2.07418 13.7207 2.28783 13.4844 2.55307C13.0501 3.06555 12.7162 3.65519 12.5 4.29119C12.2843 3.65566 11.951 3.06636 11.5175 2.55401C11.281 2.28837 10.9923 2.07441 10.6694 1.92551C10.3464 1.77662 9.99618 1.696 9.64062 1.68869C9.24967 1.67742 8.86054 1.74613 8.49709 1.8906C8.13364 2.03508 7.80353 2.25228 7.52702 2.52888C7.2505 2.80549 7.03341 3.13566 6.88905 3.49916C6.74469 3.86265 6.6761 4.25181 6.6875 4.64276C6.69494 4.99792 6.77554 5.34774 6.92426 5.67035C7.07299 5.99296 7.28664 6.28144 7.55188 6.51776C7.72758 6.67289 7.91571 6.81336 8.11438 6.93776H4.25C4.07756 6.93776 3.90681 6.97174 3.74751 7.03775C3.58821 7.10377 3.44348 7.20053 3.32159 7.32251C3.1997 7.44449 3.10304 7.58929 3.03714 7.74863C2.97124 7.90798 2.93738 8.07876 2.9375 8.25119V11.2512C2.9375 11.5993 3.07578 11.9331 3.32192 12.1793C3.56806 12.4254 3.9019 12.5637 4.25 12.5637H4.4375V18.7512C4.4375 19.0993 4.57578 19.4331 4.82192 19.6793C5.06806 19.9254 5.4019 20.0637 5.75 20.0637H19.25C19.5981 20.0637 19.9319 19.9254 20.1781 19.6793C20.4242 19.4331 20.5625 19.0993 20.5625 18.7512V12.5637H20.75C21.0981 12.5637 21.4319 12.4254 21.6781 12.1793C21.9242 11.9331 22.0625 11.5993 22.0625 11.2512V8.25119C22.0625 7.9031 21.9242 7.56926 21.6781 7.32312C21.4319 7.07697 21.0981 6.93869 20.75 6.93869ZM13.2284 5.90744C13.4394 4.77119 13.8181 3.86838 14.3244 3.29651C14.4598 3.14699 14.6247 3.02697 14.8085 2.94391C14.9924 2.86084 15.1914 2.81652 15.3931 2.81369H15.4447C15.6779 2.81372 15.9088 2.86054 16.1236 2.95137C16.3384 3.04221 16.5328 3.17522 16.6953 3.34253C16.8578 3.50984 16.9851 3.70805 17.0697 3.92543C17.1542 4.1428 17.1943 4.37493 17.1875 4.60807C17.1843 4.81002 17.1396 5.00914 17.056 5.19302C16.9724 5.3769 16.8519 5.54159 16.7019 5.67682C15.6969 6.56369 13.9925 6.82901 13.0944 6.90588C13.1178 6.63494 13.1562 6.28994 13.2284 5.90744ZM8.32344 3.32463C8.65066 2.9986 9.09339 2.81497 9.55531 2.81369H9.60687C9.80882 2.81688 10.0079 2.86164 10.1918 2.94519C10.3757 3.02874 10.5404 3.14929 10.6756 3.29932C11.5625 4.30432 11.8278 6.00869 11.9047 6.90682C11.6337 6.88338 11.2887 6.84307 10.91 6.77276C9.77375 6.56369 8.87094 6.18307 8.29906 5.67588C8.14881 5.54099 8.02803 5.37652 7.9443 5.19277C7.86058 5.00903 7.81571 4.80997 7.8125 4.60807C7.80603 4.37065 7.848 4.13441 7.93584 3.91375C8.02369 3.69309 8.15557 3.49264 8.32344 3.32463ZM4.0625 11.2512V8.25119C4.0625 8.20147 4.08225 8.15377 4.11742 8.11861C4.15258 8.08345 4.20027 8.06369 4.25 8.06369H11.9375V11.4387H4.25C4.20027 11.4387 4.15258 11.4189 4.11742 11.3838C4.08225 11.3486 4.0625 11.3009 4.0625 11.2512ZM5.5625 18.7512V12.5637H11.9375V18.9387H5.75C5.70027 18.9387 5.65258 18.9189 5.61742 18.8838C5.58225 18.8486 5.5625 18.8009 5.5625 18.7512ZM19.4375 18.7512C19.4375 18.8009 19.4177 18.8486 19.3826 18.8838C19.3474 18.9189 19.2997 18.9387 19.25 18.9387H13.0625V12.5637H19.4375V18.7512ZM20.9375 11.2512C20.9375 11.3009 20.9177 11.3486 20.8826 11.3838C20.8474 11.4189 20.7997 11.4387 20.75 11.4387H13.0625V8.06369H20.75C20.7997 8.06369 20.8474 8.08345 20.8826 8.11861C20.9177 8.15377 20.9375 8.20147 20.9375 8.25119V11.2512Z"
			fill="#C7CCCC" />
	</symbol>

	<symbol viewBox="0 0 335 230" id="sert-no">
		<path
			d="M31.5117 14.5H23.5V216.5H31.5117C31.7727 210.933 36.3686 206.5 42 206.5C47.6314 206.5 52.2273 210.933 52.4883 216.5H67.5117C67.7727 210.933 72.3686 206.5 78 206.5C83.6314 206.5 88.2273 210.933 88.4883 216.5H103.512C103.773 210.933 108.369 206.5 114 206.5C119.631 206.5 124.227 210.933 124.488 216.5H139.512C139.773 210.933 144.369 206.5 150 206.5C155.631 206.5 160.227 210.933 160.488 216.5H175.512C175.773 210.933 180.369 206.5 186 206.5C191.631 206.5 196.227 210.933 196.488 216.5H211.512C211.773 210.933 216.369 206.5 222 206.5C227.631 206.5 232.227 210.933 232.488 216.5H247.512C247.773 210.933 252.369 206.5 258 206.5C263.631 206.5 268.227 210.933 268.488 216.5H283.512C283.773 210.933 288.369 206.5 294 206.5C299.631 206.5 304.227 210.933 304.488 216.5H312.5V14.5H304.488C304.227 20.0668 299.631 24.5 294 24.5C288.369 24.5 283.773 20.0668 283.512 14.5H268.488C268.227 20.0668 263.631 24.5 258 24.5C252.369 24.5 247.773 20.0668 247.512 14.5H232.488C232.227 20.0668 227.631 24.5 222 24.5C216.369 24.5 211.773 20.0668 211.512 14.5H196.488C196.227 20.0668 191.631 24.5 186 24.5C180.369 24.5 175.773 20.0668 175.512 14.5H160.488C160.227 20.0668 155.631 24.5 150 24.5C144.369 24.5 139.773 20.0668 139.512 14.5H124.488C124.227 20.0668 119.631 24.5 114 24.5C108.369 24.5 103.773 20.0668 103.512 14.5H88.4883C88.2273 20.0668 83.6314 24.5 78 24.5C72.3686 24.5 67.7727 20.0668 67.5117 14.5H52.4883C52.2273 20.0668 47.6314 24.5 42 24.5C36.3686 24.5 31.7727 20.0668 31.5117 14.5Z"
			fill="white" />
		<path
			d="M196.484 145.5V128.438H199.074V135.645H206.855V128.438H209.445V145.5H206.855V137.742H199.074V145.5H196.484Z"
			fill="#262F42" />
		<path
			d="M183.336 145.5V128.438H193.941V130.523H185.914V135.691H192.852V137.742H185.914V143.426H194.059V145.5H183.336Z"
			fill="#262F42" />
		<path
			d="M178.871 148.875V145.5H167.059V148.875H164.68V143.414H181.25V148.875H178.871ZM168.008 128.438H179.176V145.5H176.574V130.523H170.246L169.836 137.824C169.742 139.465 169.594 140.75 169.391 141.68C169.195 142.602 168.957 143.359 168.676 143.953H166.074C166.457 143.297 166.762 142.504 166.988 141.574C167.223 140.637 167.387 139.367 167.48 137.766L168.008 128.438Z"
			fill="#262F42" />
		<path
			d="M162.746 145.5H160.156V133.664C160.156 133.406 160.156 133.125 160.156 132.82C160.164 132.516 160.172 132.234 160.18 131.977H160.098C159.996 132.203 159.883 132.438 159.758 132.68C159.633 132.922 159.496 133.176 159.348 133.441L152.41 145.5H149.586V128.438H152.176V140.285C152.176 140.543 152.172 140.824 152.164 141.129C152.164 141.434 152.16 141.711 152.152 141.961H152.234C152.328 141.742 152.438 141.512 152.562 141.27C152.695 141.02 152.836 140.762 152.984 140.496L159.922 128.438H162.746V145.5ZM156.195 124.957C156.836 124.957 157.363 124.801 157.777 124.488C158.199 124.176 158.547 123.625 158.82 122.836L160.602 123.844C160.18 124.867 159.586 125.617 158.82 126.094C158.062 126.562 157.188 126.797 156.195 126.797C155.203 126.797 154.324 126.562 153.559 126.094C152.793 125.617 152.199 124.867 151.777 123.844L153.559 122.836C153.832 123.617 154.176 124.168 154.59 124.488C155.012 124.801 155.547 124.957 156.195 124.957Z"
			fill="#262F42" />
		<path
			d="M132.828 145.5L139.027 128.355H141.664L147.887 145.5H145.18L140.727 132.727C140.641 132.453 140.562 132.195 140.492 131.953C140.43 131.711 140.371 131.465 140.316 131.215H140.223C140.16 131.465 140.094 131.711 140.023 131.953C139.961 132.195 139.883 132.453 139.789 132.727L135.348 145.5H132.828ZM135.758 141.234L136.426 139.23H144.195L144.852 141.234H135.758Z"
			fill="#262F42" />
		<path
			d="M118.18 145.5V128.438H120.77V135.645H128.551V128.438H131.141V145.5H128.551V137.742H120.77V145.5H118.18Z"
			fill="#262F42" />
		<path
			d="M99.4531 145.5V128.438H110.059V130.523H102.031V135.691H108.969V137.742H102.031V143.426H110.176V145.5H99.4531Z"
			fill="#262F42" />
		<path
			d="M82.8828 145.5V128.438H85.4727V135.645H93.2539V128.438H95.8438V145.5H93.2539V137.742H85.4727V145.5H82.8828Z"
			fill="#262F42" />
		<path d="M230.609 80.5234V78.4375H243.629V80.5234H238.426V95.5H235.812V80.5234H230.609Z"
			fill="#262F42" />
		<path
			d="M215.406 95.5L221.605 78.3555H224.242L230.465 95.5H227.758L223.305 82.7266C223.219 82.4531 223.141 82.1953 223.07 81.9531C223.008 81.7109 222.949 81.4648 222.895 81.2148H222.801C222.738 81.4648 222.672 81.7109 222.602 81.9531C222.539 82.1953 222.461 82.4531 222.367 82.7266L217.926 95.5H215.406ZM218.336 91.2344L219.004 89.2305H226.773L227.43 91.2344H218.336Z"
			fill="#262F42" />
		<path
			d="M212.723 95.5L206.066 87.1211L208.129 85.8203L215.887 95.5H212.723ZM204.027 85.6562H206.57L212.477 78.4375H215.324L207.637 87.7422H204.027V85.6562ZM202.68 95.5V78.4375H205.281V95.5H202.68Z"
			fill="#262F42" />
		<path
			d="M199.059 95.5H196.469V83.6641C196.469 83.4062 196.469 83.125 196.469 82.8203C196.477 82.5156 196.484 82.2344 196.492 81.9766H196.41C196.309 82.2031 196.195 82.4375 196.07 82.6797C195.945 82.9219 195.809 83.1758 195.66 83.4414L188.723 95.5H185.898V78.4375H188.488V90.2852C188.488 90.543 188.484 90.8242 188.477 91.1289C188.477 91.4336 188.473 91.7109 188.465 91.9609H188.547C188.641 91.7422 188.75 91.5117 188.875 91.2695C189.008 91.0195 189.148 90.7617 189.297 90.4961L196.234 78.4375H199.059V95.5Z"
			fill="#262F42" />
		<path
			d="M175.199 78.2031V80.418H175.551C178.051 80.418 179.938 80.9961 181.211 82.1523C182.484 83.3086 183.121 84.8711 183.121 86.8398C183.121 88.8086 182.484 90.3711 181.211 91.5273C179.938 92.6836 178.047 93.2617 175.539 93.2617H175.199V95.7344H172.68V93.2617H172.34C169.832 93.2617 167.941 92.6836 166.668 91.5273C165.395 90.3711 164.758 88.8086 164.758 86.8398C164.758 84.8711 165.395 83.3086 166.668 82.1523C167.949 80.9961 169.836 80.418 172.328 80.418H172.68V78.2031H175.199ZM175.516 82.4102H175.199V91.2812H175.516C177.359 91.2812 178.664 90.8945 179.43 90.1211C180.195 89.3398 180.578 88.2539 180.578 86.8633C180.578 85.4883 180.195 84.4023 179.43 83.6055C178.664 82.8086 177.359 82.4102 175.516 82.4102ZM172.363 82.4102C170.52 82.4102 169.215 82.8008 168.449 83.582C167.684 84.3555 167.301 85.4375 167.301 86.8281C167.301 88.2109 167.684 89.3008 168.449 90.0977C169.215 90.8867 170.52 91.2812 172.363 91.2812H172.68V82.4102H172.363Z"
			fill="#262F42" />
		<path
			d="M161.98 95.5H159.391V83.6641C159.391 83.4062 159.391 83.125 159.391 82.8203C159.398 82.5156 159.406 82.2344 159.414 81.9766H159.332C159.23 82.2031 159.117 82.4375 158.992 82.6797C158.867 82.9219 158.73 83.1758 158.582 83.4414L151.645 95.5H148.82V78.4375H151.41V90.2852C151.41 90.543 151.406 90.8242 151.398 91.1289C151.398 91.4336 151.395 91.7109 151.387 91.9609H151.469C151.562 91.7422 151.672 91.5117 151.797 91.2695C151.93 91.0195 152.07 90.7617 152.219 90.4961L159.156 78.4375H161.98V95.5Z"
			fill="#262F42" />
		<path d="M133.766 80.5234V78.4375H146.785V80.5234H141.582V95.5H138.969V80.5234H133.766Z"
			fill="#262F42" />
		<path
			d="M121.445 95.5V78.4375H127.246C129.09 78.4375 130.504 78.9141 131.488 79.8672C132.473 80.8203 132.965 82.1055 132.965 83.7227C132.965 85.332 132.473 86.6211 131.488 87.5898C130.512 88.5586 129.094 89.043 127.234 89.043H124.035V95.5H121.445ZM124.035 87.0039H127.07C128.297 87.0039 129.152 86.6953 129.637 86.0781C130.121 85.4531 130.363 84.6719 130.363 83.7344C130.363 82.7969 130.121 82.0234 129.637 81.4141C129.152 80.7969 128.297 80.4883 127.07 80.4883H124.035V87.0039Z"
			fill="#262F42" />
		<path
			d="M108.297 95.5V78.4375H118.902V80.5234H110.875V85.6914H117.812V87.7422H110.875V93.4258H119.02V95.5H108.297Z"
			fill="#262F42" />
		<path
			d="M92.1953 87.4844V86.4531C92.1953 83.7266 92.8555 81.6562 94.1758 80.2422C95.5039 78.8203 97.1914 78.1094 99.2383 78.1094C101.246 78.1094 102.82 78.6523 103.961 79.7383C105.102 80.8164 105.672 82.1875 105.672 83.8516V84.1211H103.07V83.8164C103.07 82.7148 102.75 81.8398 102.109 81.1914C101.477 80.5352 100.516 80.207 99.2266 80.207C97.9219 80.207 96.8672 80.6992 96.0625 81.6836C95.2578 82.6602 94.8555 84.1836 94.8555 86.2539V87.6836C94.8555 89.6289 95.2578 91.125 96.0625 92.1719C96.8672 93.2109 97.9297 93.7305 99.25 93.7305C100.477 93.7305 101.402 93.3984 102.027 92.7344C102.652 92.0703 103 91.1914 103.07 90.0977V89.8281H105.672L105.66 90.1328C105.559 91.7578 104.965 93.1133 103.879 94.1992C102.801 95.2773 101.25 95.8164 99.2266 95.8164C97.1484 95.8164 95.457 95.1055 94.1523 93.6836C92.8477 92.2539 92.1953 90.1875 92.1953 87.4844Z"
			fill="#262F42" />
		<path
			d="M235.333 122.5C238.207 122.5 240.962 123.641 242.994 125.673C245.025 127.705 246.167 130.46 246.167 133.333C246.167 136.017 245.183 138.483 243.567 140.383L244.017 140.833H245.333L253.667 149.167L251.167 151.667L242.833 143.333V142.017L242.383 141.567C240.418 143.245 237.918 144.167 235.333 144.167C232.46 144.167 229.705 143.025 227.673 140.994C225.641 138.962 224.5 136.207 224.5 133.333C224.5 130.46 225.641 127.705 227.673 125.673C229.705 123.641 232.46 122.5 235.333 122.5ZM235.333 125.833C231.167 125.833 227.833 129.167 227.833 133.333C227.833 137.5 231.167 140.833 235.333 140.833C239.5 140.833 242.833 137.5 242.833 133.333C242.833 129.167 239.5 125.833 235.333 125.833Z"
			fill="#262F42" />
		<path fill-rule="evenodd" clip-rule="evenodd"
			d="M231.952 129.949C232.44 129.461 233.232 129.461 233.72 129.949L235.336 131.565L236.952 129.949C237.44 129.461 238.232 129.461 238.72 129.949C239.208 130.438 239.208 131.229 238.72 131.717L237.104 133.333L238.72 134.949C239.208 135.438 239.208 136.229 238.72 136.717C238.232 137.205 237.44 137.205 236.952 136.717L235.336 135.101L233.72 136.717C233.232 137.205 232.44 137.205 231.952 136.717C231.464 136.229 231.464 135.438 231.952 134.949L233.568 133.333L231.952 131.717C231.464 131.229 231.464 130.438 231.952 129.949Z"
			fill="#262F42" />
	</symbol>

	<symbol viewBox="0 0 335 230" id="activ-failed">
		<path
			d="M31.5117 14.5H23.5V216.5H31.5117C31.7727 210.933 36.3686 206.5 42 206.5C47.6314 206.5 52.2273 210.933 52.4883 216.5H67.5117C67.7727 210.933 72.3686 206.5 78 206.5C83.6314 206.5 88.2273 210.933 88.4883 216.5H103.512C103.773 210.933 108.369 206.5 114 206.5C119.631 206.5 124.227 210.933 124.488 216.5H139.512C139.773 210.933 144.369 206.5 150 206.5C155.631 206.5 160.227 210.933 160.488 216.5H175.512C175.773 210.933 180.369 206.5 186 206.5C191.631 206.5 196.227 210.933 196.488 216.5H211.512C211.773 210.933 216.369 206.5 222 206.5C227.631 206.5 232.227 210.933 232.488 216.5H247.512C247.773 210.933 252.369 206.5 258 206.5C263.631 206.5 268.227 210.933 268.488 216.5H283.512C283.773 210.933 288.369 206.5 294 206.5C299.631 206.5 304.227 210.933 304.488 216.5H312.5V14.5H304.488C304.227 20.0668 299.631 24.5 294 24.5C288.369 24.5 283.773 20.0668 283.512 14.5H268.488C268.227 20.0668 263.631 24.5 258 24.5C252.369 24.5 247.773 20.0668 247.512 14.5H232.488C232.227 20.0668 227.631 24.5 222 24.5C216.369 24.5 211.773 20.0668 211.512 14.5H196.488C196.227 20.0668 191.631 24.5 186 24.5C180.369 24.5 175.773 20.0668 175.512 14.5H160.488C160.227 20.0668 155.631 24.5 150 24.5C144.369 24.5 139.773 20.0668 139.512 14.5H124.488C124.227 20.0668 119.631 24.5 114 24.5C108.369 24.5 103.773 20.0668 103.512 14.5H88.4883C88.2273 20.0668 83.6314 24.5 78 24.5C72.3686 24.5 67.7727 20.0668 67.5117 14.5H52.4883C52.2273 20.0668 47.6314 24.5 42 24.5C36.3686 24.5 31.7727 20.0668 31.5117 14.5Z"
			fill="white" />
		<path
			d="M234.898 96H232.297V89.2383H228.559L227.938 89.0625C226.516 88.8672 225.43 88.3203 224.68 87.4219C223.93 86.5234 223.555 85.3984 223.555 84.0469C223.555 82.5 224.043 81.2617 225.02 80.332C226.004 79.4023 227.41 78.9375 229.238 78.9375H234.898V96ZM232.297 87.2461V80.9648H229.367C228.164 80.9648 227.328 81.2578 226.859 81.8438C226.391 82.4297 226.156 83.1719 226.156 84.0703C226.156 84.9766 226.391 85.7344 226.859 86.3438C227.328 86.9453 228.164 87.2461 229.367 87.2461H232.297ZM225.559 96H222.758L226.965 88.1367H229.66L225.559 96Z"
			fill="#262F42" />
		<path
			d="M220.496 96H217.906V84.1641C217.906 83.9062 217.906 83.625 217.906 83.3203C217.914 83.0156 217.922 82.7344 217.93 82.4766H217.848C217.746 82.7031 217.633 82.9375 217.508 83.1797C217.383 83.4219 217.246 83.6758 217.098 83.9414L210.16 96H207.336V78.9375H209.926V90.7852C209.926 91.043 209.922 91.3242 209.914 91.6289C209.914 91.9336 209.91 92.2109 209.902 92.4609H209.984C210.078 92.2422 210.188 92.0117 210.312 91.7695C210.445 91.5195 210.586 91.2617 210.734 90.9961L217.672 78.9375H220.496V96Z"
			fill="#262F42" />
		<path
			d="M202.859 99.375V96H190.391V78.9375H192.992V93.9141H200.562V78.9375H203.164V93.9141H205.238V99.375H202.859Z"
			fill="#262F42" />
		<path
			d="M173.633 96L179.832 78.8555H182.469L188.691 96H185.984L181.531 83.2266C181.445 82.9531 181.367 82.6953 181.297 82.4531C181.234 82.2109 181.176 81.9648 181.121 81.7148H181.027C180.965 81.9648 180.898 82.2109 180.828 82.4531C180.766 82.6953 180.688 82.9531 180.594 83.2266L176.152 96H173.633ZM176.562 91.7344L177.23 89.7305H185L185.656 91.7344H176.562Z"
			fill="#262F42" />
		<path
			d="M161.07 96V78.9375H166.801C168.512 78.9375 169.848 79.3008 170.809 80.0273C171.777 80.7539 172.262 81.8789 172.262 83.4023C172.262 84.3555 172.035 85.1367 171.582 85.7461C171.137 86.3477 170.578 86.7656 169.906 87V87.0469C170.734 87.2812 171.41 87.7422 171.934 88.4297C172.465 89.1172 172.73 90.0195 172.73 91.1367C172.73 92.6758 172.223 93.8711 171.207 94.7227C170.191 95.5742 168.836 96 167.141 96H161.07ZM163.625 94.0078H167.047C168.109 94.0078 168.891 93.7422 169.391 93.2109C169.898 92.6797 170.152 91.9609 170.152 91.0547C170.152 90.1484 169.898 89.4297 169.391 88.8984C168.891 88.3594 168.109 88.0898 167.047 88.0898H163.625V94.0078ZM163.625 86.1914H166.707C167.77 86.1914 168.535 85.957 169.004 85.4883C169.473 85.0195 169.707 84.3672 169.707 83.5312C169.707 82.6953 169.473 82.0586 169.004 81.6211C168.535 81.1758 167.77 80.9492 166.707 80.9414H163.625V86.1914Z"
			fill="#262F42" />
		<path
			d="M157.449 96H154.859V84.1641C154.859 83.9062 154.859 83.625 154.859 83.3203C154.867 83.0156 154.875 82.7344 154.883 82.4766H154.801C154.699 82.7031 154.586 82.9375 154.461 83.1797C154.336 83.4219 154.199 83.6758 154.051 83.9414L147.113 96H144.289V78.9375H146.879V90.7852C146.879 91.043 146.875 91.3242 146.867 91.6289C146.867 91.9336 146.863 92.2109 146.855 92.4609H146.938C147.031 92.2422 147.141 92.0117 147.266 91.7695C147.398 91.5195 147.539 91.2617 147.688 90.9961L154.625 78.9375H157.449V96Z"
			fill="#262F42" />
		<path d="M129.234 81.0234V78.9375H142.254V81.0234H137.051V96H134.438V81.0234H129.234Z"
			fill="#262F42" />
		<path
			d="M126.184 96L119.527 87.6211L121.59 86.3203L129.348 96H126.184ZM117.488 86.1562H120.031L125.938 78.9375H128.785L121.098 88.2422H117.488V86.1562ZM116.141 96V78.9375H118.742V96H116.141Z"
			fill="#262F42" />
		<path
			d="M99.3828 96L105.582 78.8555H108.219L114.441 96H111.734L107.281 83.2266C107.195 82.9531 107.117 82.6953 107.047 82.4531C106.984 82.2109 106.926 81.9648 106.871 81.7148H106.777C106.715 81.9648 106.648 82.2109 106.578 82.4531C106.516 82.6953 106.438 82.9531 106.344 83.2266L101.902 96H99.3828ZM102.312 91.7344L102.98 89.7305H110.75L111.406 91.7344H102.312Z"
			fill="#262F42" />
		<path
			d="M195.484 146.531L201.684 129.387H204.32L210.543 146.531H207.836L203.383 133.758C203.297 133.484 203.219 133.227 203.148 132.984C203.086 132.742 203.027 132.496 202.973 132.246H202.879C202.816 132.496 202.75 132.742 202.68 132.984C202.617 133.227 202.539 133.484 202.445 133.758L198.004 146.531H195.484ZM198.414 142.266L199.082 140.262H206.852L207.508 142.266H198.414Z"
			fill="#262F42" />
		<path
			d="M182.805 129.469H193.785V146.531H191.184V131.555H185.055L184.598 140.191C184.48 142.387 184.148 144.047 183.602 145.172C183.055 146.289 182.023 146.848 180.508 146.848C180.289 146.848 180.07 146.832 179.852 146.801C179.633 146.777 179.414 146.727 179.195 146.648V144.41C179.367 144.473 179.523 144.516 179.664 144.539C179.812 144.562 179.965 144.574 180.121 144.574C180.871 144.574 181.395 144.219 181.691 143.508C181.988 142.789 182.18 141.559 182.266 139.816L182.805 129.469Z"
			fill="#262F42" />
		<path
			d="M158.172 129.469H160.762V144.445H166.422V129.469H169.012V144.445H174.672V129.469H177.273V146.531H158.172V129.469Z"
			fill="#262F42" />
		<path
			d="M140.945 138.516V137.484C140.945 134.758 141.605 132.688 142.926 131.273C144.254 129.852 145.965 129.141 148.059 129.141C150.145 129.141 151.852 129.852 153.18 131.273C154.508 132.688 155.172 134.758 155.172 137.484V138.516C155.172 141.242 154.508 143.316 153.18 144.738C151.852 146.152 150.145 146.859 148.059 146.859C145.965 146.859 144.254 146.152 142.926 144.738C141.605 143.316 140.945 141.242 140.945 138.516ZM143.594 138.691C143.594 140.691 144 142.203 144.812 143.227C145.625 144.25 146.707 144.762 148.059 144.762C149.41 144.762 150.492 144.25 151.305 143.227C152.117 142.203 152.523 140.691 152.523 138.691V137.309C152.523 135.309 152.117 133.797 151.305 132.773C150.492 131.75 149.41 131.238 148.059 131.238C146.707 131.238 145.625 131.75 144.812 132.773C144 133.797 143.594 135.309 143.594 137.309V138.691Z"
			fill="#262F42" />
		<path
			d="M127.68 146.531V129.469H133.48C135.324 129.469 136.738 129.945 137.723 130.898C138.707 131.852 139.199 133.137 139.199 134.754C139.199 136.363 138.707 137.652 137.723 138.621C136.746 139.59 135.328 140.074 133.469 140.074H130.27V146.531H127.68ZM130.27 138.035H133.305C134.531 138.035 135.387 137.727 135.871 137.109C136.355 136.484 136.598 135.703 136.598 134.766C136.598 133.828 136.355 133.055 135.871 132.445C135.387 131.828 134.531 131.52 133.305 131.52H130.27V138.035Z"
			fill="#262F42" />
		<path d="M111.297 146.531V129.469H124.07V146.531H121.469V131.555H113.898V146.531H111.297Z"
			fill="#262F42" />
		<path
			d="M92.5703 146.531V129.469H103.176V131.555H95.1484V136.723H102.086V138.773H95.1484V144.457H103.293V146.531H92.5703Z"
			fill="#262F42" />
		<path
			d="M76 146.531V129.469H78.5898V136.676H86.3711V129.469H88.9609V146.531H86.3711V138.773H78.5898V146.531H76Z"
			fill="#262F42" />
		<g clip-path="url(#clip0_5001_54843)">
			<path
				d="M240.711 123.247L255.101 148.17C255.321 148.55 255.436 148.981 255.436 149.42C255.436 149.859 255.321 150.29 255.101 150.67C254.882 151.05 254.566 151.366 254.186 151.585C253.806 151.804 253.375 151.92 252.936 151.92H224.156C223.717 151.92 223.286 151.804 222.906 151.585C222.526 151.366 222.211 151.05 221.991 150.67C221.772 150.29 221.656 149.859 221.656 149.42C221.656 148.981 221.772 148.55 221.991 148.17L236.381 123.247C237.343 121.58 239.748 121.58 240.711 123.247ZM238.546 126.163L225.6 148.587H251.493L238.546 126.163ZM238.546 143C238.988 143 239.412 143.176 239.725 143.488C240.037 143.801 240.213 144.225 240.213 144.667C240.213 145.109 240.037 145.533 239.725 145.845C239.412 146.158 238.988 146.333 238.546 146.333C238.104 146.333 237.68 146.158 237.368 145.845C237.055 145.533 236.88 145.109 236.88 144.667C236.88 144.225 237.055 143.801 237.368 143.488C237.68 143.176 238.104 143 238.546 143ZM238.546 131.333C238.988 131.333 239.412 131.509 239.725 131.821C240.037 132.134 240.213 132.558 240.213 133V139.667C240.213 140.109 240.037 140.533 239.725 140.845C239.412 141.158 238.988 141.333 238.546 141.333C238.104 141.333 237.68 141.158 237.368 140.845C237.055 140.533 236.88 140.109 236.88 139.667V133C236.88 132.558 237.055 132.134 237.368 131.821C237.68 131.509 238.104 131.333 238.546 131.333Z"
				fill="#262F42" />
		</g>
		<defs>
			<clipPath id="clip0_5001_54843">
				<rect width="40" height="40" fill="white" transform="translate(218.547 118)" />
			</clipPath>
		</defs>
	</symbol>

</svg>