<svg width="160" height="160" viewBox="0 0 160 160" fill="none" xmlns="http://www.w3.org/2000/svg">
<path d="M146.133 44.1333C145.457 42.5043 144.162 41.2098 142.533 40.5333C141.732 40.1917 140.871 40.0105 140 40H106.667C104.899 40 103.203 40.7024 101.953 41.9526C100.702 43.2029 100 44.8986 100 46.6667C100 48.4348 100.702 50.1305 101.953 51.3807C103.203 52.631 104.899 53.3333 106.667 53.3333H123.933L86.6667 90.6L64.7333 68.6C64.1136 67.9751 63.3762 67.4792 62.5638 67.1407C61.7514 66.8023 60.8801 66.628 60 66.628C59.1199 66.628 58.2485 66.8023 57.4361 67.1407C56.6238 67.4792 55.8864 67.9751 55.2667 68.6L15.2667 108.6C14.6418 109.22 14.1458 109.957 13.8074 110.769C13.4689 111.582 13.2947 112.453 13.2947 113.333C13.2947 114.213 13.4689 115.085 13.8074 115.897C14.1458 116.71 14.6418 117.447 15.2667 118.067C15.8864 118.692 16.6238 119.187 17.4362 119.526C18.2486 119.864 19.1199 120.039 20 120.039C20.8801 120.039 21.7514 119.864 22.5638 119.526C23.3762 119.187 24.1136 118.692 24.7333 118.067L60 82.7333L81.9333 104.733C82.5531 105.358 83.2904 105.854 84.1028 106.193C84.9152 106.531 85.7866 106.705 86.6667 106.705C87.5467 106.705 88.4181 106.531 89.2305 106.193C90.0429 105.854 90.7802 105.358 91.4 104.733L133.333 62.7333V80C133.333 81.7681 134.036 83.4638 135.286 84.714C136.536 85.9643 138.232 86.6667 140 86.6667C141.768 86.6667 143.464 85.9643 144.714 84.714C145.964 83.4638 146.667 81.7681 146.667 80V46.6667C146.656 45.7955 146.475 44.9348 146.133 44.1333Z" fill="#ADC4FC"/>
</svg>
