<svg width="160" height="161" viewBox="0 0 160 161" fill="none" xmlns="http://www.w3.org/2000/svg">
<path d="M9.59672 70.3769C7.76185 72.4405 7.94732 75.6009 10.011 77.4358C12.0746 79.2707 15.235 79.0852 17.0699 77.0216L9.59672 70.3769ZM32.0466 52.6526L35.7832 55.9749L35.7842 55.9738L32.0466 52.6526ZM51.98 43.6992V38.6992L51.9799 38.6992L51.98 43.6992ZM53.3333 48.6992C56.0947 48.6992 58.3333 46.4606 58.3333 43.6992C58.3333 40.9378 56.0947 38.6992 53.3333 38.6992V48.6992ZM13.3333 125.366C10.5719 125.366 8.33331 127.604 8.33331 130.366C8.33331 133.127 10.5719 135.366 13.3333 135.366V125.366ZM50 130.366V135.366C51.0818 135.366 52.1345 135.015 53 134.366L50 130.366ZM76.6666 110.366L73.8684 106.222C73.8 106.268 73.7327 106.316 73.6666 106.366L76.6666 110.366ZM90 100.366L86.8765 96.4615L86.8745 96.4631L90 100.366ZM73.3333 77.0326L70.5606 72.8718L70.5603 72.872L73.3333 77.0326ZM44.1517 89.3778C41.765 90.7668 40.9562 93.8275 42.3452 96.2142C43.7342 98.6009 46.795 99.4096 49.1816 98.0207L44.1517 89.3778ZM66.6666 33.6992V28.6992V33.6992ZM133.333 33.6992V28.6992V33.6992ZM142.761 37.6045L146.297 34.0689L142.761 37.6045ZM142.761 96.4606L146.297 99.9962L142.761 96.4606ZM100 53.6992V58.6992V53.6992ZM126.3 63.7359C124.443 65.7792 124.593 68.9415 126.637 70.799C128.68 72.6565 131.842 72.5058 133.7 70.4625L126.3 63.7359ZM133.766 70.3892C135.624 68.3459 135.473 65.1836 133.43 63.3261C131.387 61.4686 128.224 61.6193 126.367 63.6626L133.766 70.3892ZM66.3002 63.7359C64.4427 65.7792 64.5934 68.9415 66.6367 70.799C68.68 72.6565 71.8422 72.5058 73.6997 70.4625L66.3002 63.7359ZM73.7664 70.3892C75.6239 68.3459 75.4733 65.1836 73.4299 63.3261C71.3866 61.4686 68.2244 61.6193 66.3669 63.6626L73.7664 70.3892ZM17.0699 77.0216L35.7832 55.9749L28.3101 49.3302L9.59672 70.3769L17.0699 77.0216ZM35.7842 55.9738C37.8169 53.6863 40.3112 51.8553 43.1028 50.6014L39.0055 41.4793C34.9255 43.3119 31.28 45.988 28.3091 49.3313L35.7842 55.9738ZM43.1028 50.6014C45.8943 49.3475 48.9198 48.6993 51.98 48.6992L51.9799 38.6992C47.5073 38.6993 43.0854 39.6468 39.0055 41.4793L43.1028 50.6014ZM51.98 48.6992H53.3333V38.6992H51.98V48.6992ZM13.3333 135.366H50V125.366H13.3333V135.366ZM53 134.366L79.6666 114.366L73.6666 106.366L47 126.366L53 134.366ZM76.6666 110.366C79.4649 114.51 79.4652 114.509 79.4655 114.509C79.4656 114.509 79.4659 114.509 79.4662 114.509C79.4667 114.508 79.4673 114.508 79.4679 114.507C79.4693 114.507 79.4709 114.505 79.4729 114.504C79.4769 114.501 79.4823 114.498 79.4889 114.493C79.5021 114.484 79.5205 114.472 79.5441 114.456C79.5912 114.424 79.6587 114.378 79.7461 114.318C79.9207 114.197 80.1745 114.022 80.5017 113.793C81.156 113.335 82.1046 112.662 83.3023 111.79C85.6972 110.045 89.0918 107.499 93.1255 104.269L86.8745 96.4631C82.9748 99.5862 79.7028 102.04 77.4143 103.707C76.2704 104.54 75.3731 105.176 74.767 105.601C74.464 105.813 74.2339 105.972 74.0823 106.076C74.0065 106.128 73.9503 106.167 73.9144 106.191C73.8964 106.203 73.8836 106.212 73.8759 106.217C73.872 106.22 73.8695 106.222 73.8682 106.222C73.8676 106.223 73.8673 106.223 73.8673 106.223C73.8674 106.223 73.8674 106.223 73.8676 106.223C73.8677 106.223 73.8679 106.223 73.868 106.223C73.8682 106.222 73.8684 106.222 76.6666 110.366ZM93.1235 104.27C98.1393 100.258 100.998 95.3494 101.721 90.2338C102.439 85.1615 100.994 80.3031 98.1665 76.534C92.4085 68.8574 81.1027 65.8465 70.5606 72.8718L76.106 81.1933C82.2306 77.1119 87.5915 79.101 90.1668 82.5344C91.5064 84.3204 92.144 86.5445 91.8201 88.8325C91.5024 91.0774 90.194 93.8075 86.8765 96.4615L93.1235 104.27ZM70.5603 72.872C63.8461 77.347 57.2389 81.4768 52.3036 84.4914C49.838 85.9975 47.7946 87.2223 46.3697 88.0692C45.6574 88.4927 45.1 88.8215 44.722 89.0436C44.5331 89.1547 44.389 89.2391 44.2929 89.2953C44.2449 89.3234 44.2088 89.3444 44.1852 89.3582C44.1733 89.3652 44.1646 89.3702 44.159 89.3735C44.1562 89.3751 44.1542 89.3763 44.153 89.377C44.1523 89.3774 44.1519 89.3776 44.1517 89.3777C44.1516 89.3778 44.1516 89.3778 44.1515 89.3778C44.1516 89.3778 44.1517 89.3778 46.6666 93.6992C49.1816 98.0207 49.1818 98.0206 49.182 98.0204C49.1822 98.0203 49.1825 98.0202 49.1828 98.02C49.1834 98.0197 49.1841 98.0192 49.1851 98.0186C49.1871 98.0175 49.1898 98.0159 49.1934 98.0138C49.2005 98.0097 49.2107 98.0037 49.2241 97.9959C49.2508 97.9803 49.2899 97.9575 49.3411 97.9276C49.4434 97.8677 49.5939 97.7796 49.7895 97.6646C50.1806 97.4347 50.7521 97.0975 51.4794 96.6652C52.9337 95.8007 55.0119 94.5551 57.5164 93.0253C62.521 89.9683 69.2472 85.7648 76.1063 81.1931L70.5603 72.872ZM58.3333 90.3659V47.0326H48.3333V90.3659H58.3333ZM58.3333 47.0326C58.3333 44.8224 59.2113 42.7028 60.7741 41.14L53.703 34.0689C50.2649 37.5071 48.3333 42.1702 48.3333 47.0326H58.3333ZM60.7741 41.14C62.3369 39.5772 64.4565 38.6992 66.6666 38.6992V28.6992C61.8043 28.6992 57.1412 30.6308 53.703 34.0689L60.7741 41.14ZM66.6666 38.6992H133.333V28.6992H66.6666V38.6992ZM133.333 38.6992C135.543 38.6992 137.663 39.5772 139.226 41.14L146.297 34.0689C142.859 30.6308 138.196 28.6992 133.333 28.6992V38.6992ZM139.226 41.14C140.789 42.7028 141.667 44.8224 141.667 47.0326H151.667C151.667 42.1702 149.735 37.5071 146.297 34.0689L139.226 41.14ZM141.667 47.0326V87.0326H151.667V47.0326H141.667ZM141.667 87.0326C141.667 89.2427 140.789 91.3623 139.226 92.9251L146.297 99.9962C149.735 96.558 151.667 91.8949 151.667 87.0326H141.667ZM139.226 92.9251C137.663 94.4879 135.543 95.3659 133.333 95.3659V105.366C138.196 105.366 142.859 103.434 146.297 99.9962L139.226 92.9251ZM133.333 95.3659H90V105.366H133.333V95.3659ZM100 75.3659C97.7898 75.3659 95.6702 74.4879 94.1074 72.9251L87.0364 79.9962C90.4745 83.4343 95.1377 85.3659 100 85.3659V75.3659ZM94.1074 72.9251C92.5446 71.3623 91.6666 69.2427 91.6666 67.0326H81.6666C81.6666 71.8949 83.5982 76.558 87.0364 79.9962L94.1074 72.9251ZM91.6666 67.0326C91.6666 64.8224 92.5446 62.7028 94.1074 61.14L87.0364 54.0689C83.5982 57.5071 81.6666 62.1702 81.6666 67.0326H91.6666ZM94.1074 61.14C95.6702 59.5772 97.7898 58.6992 100 58.6992V48.6992C95.1377 48.6992 90.4745 50.6308 87.0364 54.0689L94.1074 61.14ZM100 58.6992C102.21 58.6992 104.33 59.5772 105.893 61.14L112.964 54.0689C109.525 50.6308 104.862 48.6992 100 48.6992V58.6992ZM105.893 61.14C107.455 62.7028 108.333 64.8224 108.333 67.0326H118.333C118.333 62.1702 116.402 57.5071 112.964 54.0689L105.893 61.14ZM108.333 67.0326C108.333 69.2427 107.455 71.3623 105.893 72.9251L112.964 79.9962C116.402 76.558 118.333 71.8949 118.333 67.0326H108.333ZM105.893 72.9251C104.33 74.4879 102.21 75.3659 100 75.3659V85.3659C104.862 85.3659 109.525 83.4343 112.964 79.9962L105.893 72.9251ZM133.7 70.4625L133.766 70.3892L126.367 63.6626L126.3 63.7359L133.7 70.4625ZM73.6997 70.4625L73.7664 70.3892L66.3669 63.6626L66.3002 63.7359L73.6997 70.4625Z" fill="#ADC4FC"/>
</svg>
