<svg width="124" height="112" viewBox="0 0 124 112" fill="none" xmlns="http://www.w3.org/2000/svg">
<path d="M61.9997 89.9206C69.708 89.9206 76.2611 87.2237 81.659 81.8299C87.0569 76.4361 89.7538 69.883 89.7497 62.1706C89.7456 54.4581 87.0487 47.9071 81.659 42.5174C76.2693 37.1277 69.7162 34.4288 61.9997 34.4206C54.2831 34.4124 47.7321 37.1113 42.3465 42.5174C36.961 47.9235 34.262 54.4746 34.2497 62.1706C34.2373 69.8666 36.9363 76.4197 42.3465 81.8299C47.7567 87.2401 54.3078 89.937 61.9997 89.9206ZM61.9997 77.5872C57.683 77.5872 54.0344 76.097 51.0538 73.1164C48.0733 70.1358 46.583 66.4872 46.583 62.1706C46.583 57.8539 48.0733 54.2053 51.0538 51.2247C54.0344 48.2442 57.683 46.7539 61.9997 46.7539C66.3163 46.7539 69.965 48.2442 72.9455 51.2247C75.9261 54.2053 77.4163 57.8539 77.4163 62.1706C77.4163 66.4872 75.9261 70.1358 72.9455 73.1164C69.965 76.097 66.3163 77.5872 61.9997 77.5872ZM12.6663 111.504C9.27467 111.504 6.37223 110.297 3.95901 107.884C1.54579 105.471 0.337119 102.566 0.333008 99.1706V25.1706C0.333008 21.7789 1.54167 18.8765 3.95901 16.4632C6.37634 14.05 9.27879 12.8414 12.6663 12.8372H32.0913L43.4997 0.503906H80.4997L91.908 12.8372H111.333C114.725 12.8372 117.629 14.0459 120.047 16.4632C122.464 18.8806 123.67 21.783 123.666 25.1706V99.1706C123.666 102.562 122.46 105.467 120.047 107.884C117.633 110.301 114.729 111.508 111.333 111.504H12.6663Z" fill="#1D1F24"/>
</svg>
