<svg fill="none" xmlns="http://www.w3.org/2000/svg">

  <symbol viewBox="0 0 32 32" id="price">
    <path d="M27 9.24964H21.8425C22.1072 9.08348 22.358 8.8962 22.5925 8.68964C22.9461 8.37454 23.231 7.98991 23.4293 7.55976C23.6276 7.12961 23.7351 6.66319 23.745 6.18964C23.7603 5.6687 23.6692 5.15012 23.4771 4.66566C23.285 4.18119 22.996 3.74105 22.6278 3.37218C22.2597 3.00332 21.8201 2.71349 21.336 2.52047C20.8519 2.32745 20.3335 2.23529 19.8125 2.24964C19.3389 2.25956 18.8725 2.36702 18.4424 2.56532C18.0122 2.76362 17.6276 3.04849 17.3125 3.40214C16.7335 4.08545 16.2882 4.87163 16 5.71964C15.7124 4.87226 15.268 4.08653 14.69 3.40339C14.3747 3.04921 13.9897 2.76393 13.5591 2.5654C13.1285 2.36687 12.6616 2.25937 12.1875 2.24964C11.6662 2.2346 11.1474 2.32622 10.6628 2.51885C10.1782 2.71149 9.73805 3.00109 9.36936 3.36989C9.00067 3.7387 8.71121 4.17893 8.51873 4.66359C8.32625 5.14825 8.2348 5.66712 8.25 6.18839C8.25992 6.66194 8.36739 7.12836 8.56568 7.55851C8.76398 7.98866 9.04885 8.37329 9.4025 8.68839C9.63678 8.89524 9.88762 9.08253 10.1525 9.24839H5C4.77008 9.24839 4.54242 9.29369 4.33002 9.38172C4.11761 9.46974 3.92464 9.59876 3.76212 9.76139C3.5996 9.92403 3.47072 10.1171 3.38285 10.3296C3.29498 10.542 3.24984 10.7697 3.25 10.9996V14.9996C3.25 15.4638 3.43437 15.9089 3.76256 16.2371C4.09075 16.5653 4.53587 16.7496 5 16.7496H5.25V24.9996C5.25 25.4638 5.43438 25.9089 5.76256 26.2371C6.09075 26.5653 6.53587 26.7496 7 26.7496H25C25.4641 26.7496 25.9092 26.5653 26.2374 26.2371C26.5656 25.9089 26.75 25.4638 26.75 24.9996V16.7496H27C27.4641 16.7496 27.9092 16.5653 28.2374 16.2371C28.5656 15.9089 28.75 15.4638 28.75 14.9996V10.9996C28.75 10.5355 28.5656 10.0904 28.2374 9.7622C27.9092 9.43401 27.4641 9.24964 27 9.24964ZM16.9713 7.87464C17.2525 6.35964 17.7575 5.15589 18.4325 4.39339C18.6131 4.19404 18.8329 4.03401 19.078 3.92325C19.3232 3.8125 19.5885 3.7534 19.8575 3.74964H19.9263C20.2372 3.74967 20.545 3.8121 20.8315 3.93321C21.1179 4.05433 21.3771 4.23167 21.5938 4.45475C21.8105 4.67783 21.9802 4.94211 22.0929 5.23195C22.2056 5.52178 22.259 5.83129 22.25 6.14214C22.2458 6.4114 22.1861 6.6769 22.0747 6.92208C21.9633 7.16725 21.8025 7.38684 21.6025 7.56714C20.2625 8.74964 17.99 9.10339 16.7925 9.20589C16.8237 8.84464 16.875 8.38464 16.9713 7.87464ZM10.4313 4.43089C10.8675 3.99618 11.4579 3.75134 12.0737 3.74964H12.1425C12.4118 3.75388 12.6773 3.81357 12.9224 3.92497C13.1676 4.03637 13.3872 4.19711 13.5675 4.39714C14.75 5.73714 15.1038 8.00964 15.2063 9.20714C14.845 9.17589 14.385 9.12214 13.88 9.02839C12.365 8.74964 11.1613 8.24214 10.3988 7.56589C10.1984 7.38603 10.0374 7.16674 9.92574 6.92174C9.8141 6.67675 9.75427 6.41133 9.75 6.14214C9.74137 5.82559 9.79733 5.51059 9.91446 5.21638C10.0316 4.92217 10.2074 4.6549 10.4313 4.43089ZM4.75 14.9996V10.9996C4.75 10.9333 4.77634 10.8697 4.82322 10.8229C4.87011 10.776 4.9337 10.7496 5 10.7496H15.25V15.2496H5C4.9337 15.2496 4.87011 15.2233 4.82322 15.1764C4.77634 15.1295 4.75 15.0659 4.75 14.9996ZM6.75 24.9996V16.7496H15.25V25.2496H7C6.9337 25.2496 6.87011 25.2233 6.82322 25.1764C6.77634 25.1295 6.75 25.0659 6.75 24.9996ZM25.25 24.9996C25.25 25.0659 25.2237 25.1295 25.1768 25.1764C25.1299 25.2233 25.0663 25.2496 25 25.2496H16.75V16.7496H25.25V24.9996ZM27.25 14.9996C27.25 15.0659 27.2237 15.1295 27.1768 15.1764C27.1299 15.2233 27.0663 15.2496 27 15.2496H16.75V10.7496H27C27.0663 10.7496 27.1299 10.776 27.1768 10.8229C27.2237 10.8697 27.25 10.9333 27.25 10.9996V14.9996Z" />
  </symbol>

  <symbol viewBox="0 0 32 32" id="noncash">
    <path d="M20.6677 5.70098C20.393 5.46302 20.0417 5.33203 19.6782 5.33203C19.3147 5.33203 18.9635 5.46302 18.6887 5.70098C18.5601 5.81182 18.4569 5.94909 18.3862 6.10343C18.3154 6.25778 18.2788 6.42557 18.2788 6.59535C18.2788 6.76514 18.3154 6.93292 18.3862 7.08727C18.4569 7.24161 18.5601 7.37889 18.6887 7.48972C23.886 12.1892 23.886 19.8082 18.6887 24.5077C18.5601 24.6185 18.4569 24.7558 18.3862 24.9101C18.3154 25.0645 18.2788 25.2323 18.2788 25.402C18.2788 25.5718 18.3154 25.7396 18.3862 25.894C18.4569 26.0483 18.5601 26.1856 18.6887 26.2964C18.9635 26.5344 19.3147 26.6654 19.6782 26.6654C20.0417 26.6654 20.393 26.5344 20.6677 26.2964C26.9585 20.6101 26.9585 11.389 20.6677 5.70098ZM13.3314 8.39298C13.4524 8.26769 13.5975 8.16805 13.7578 8.1C13.9182 8.03194 14.0907 7.99687 14.2649 7.99687C14.4391 7.99687 14.6115 8.03194 14.7719 8.1C14.9323 8.16805 15.0773 8.26769 15.1984 8.39298C19.311 12.5946 19.311 19.4082 15.1984 23.6097C15.0773 23.735 14.9323 23.8347 14.7719 23.9027C14.6115 23.9708 14.4391 24.0059 14.2649 24.0059C14.0907 24.0059 13.9182 23.9708 13.7578 23.9027C13.5975 23.8347 13.4524 23.735 13.3314 23.6097C13.0842 23.3544 12.9461 23.013 12.9461 22.6576C12.9461 22.3022 13.0842 21.9608 13.3314 21.7054C16.4146 18.5547 16.4146 13.4481 13.3314 10.2991C13.0837 10.0436 12.9452 9.70183 12.9452 9.34603C12.9452 8.99024 13.0837 8.64842 13.3314 8.39298ZM9.92637 11.0494C9.66821 10.8022 9.32455 10.6642 8.96709 10.6642C8.60964 10.6642 8.26599 10.8022 8.00782 11.0494C7.88249 11.169 7.78271 11.3127 7.71454 11.472C7.64637 11.6312 7.61122 11.8026 7.61122 11.9758C7.61122 12.149 7.64637 12.3204 7.71454 12.4797C7.78271 12.6389 7.88249 12.7826 8.00782 12.9022C8.42739 13.3014 8.76144 13.7818 8.98969 14.3141C9.21795 14.8464 9.33565 15.4195 9.33565 15.9987C9.33565 16.5779 9.21795 17.151 8.98969 17.6833C8.76144 18.2156 8.42739 18.696 8.00782 19.0952C7.88221 19.2148 7.7822 19.3586 7.71386 19.518C7.64553 19.6774 7.61029 19.8491 7.61029 20.0225C7.61029 20.1959 7.64553 20.3675 7.71386 20.5269C7.7822 20.6863 7.88221 20.8302 8.00782 20.9497C8.26607 21.1975 8.6101 21.3359 8.96798 21.3359C9.32587 21.3359 9.6699 21.1975 9.92815 20.9497C10.5989 20.3115 11.1329 19.5436 11.4978 18.6926C11.8627 17.8417 12.0509 16.9255 12.0509 15.9996C12.0509 15.0737 11.8627 14.1575 11.4978 13.3065C11.1329 12.4556 10.5989 11.6877 9.92815 11.0494" />
  </symbol>

  <symbol viewBox="0 0 32 32" id="cash">
    <path d="M19.463 4.1875C19.5039 4.13576 19.5546 4.09263 19.6123 4.06059C19.6699 4.02854 19.7333 4.00821 19.7989 4.00078C19.8644 3.99334 19.9307 3.99894 19.9941 4.01726C20.0574 4.03557 20.1165 4.06624 20.168 4.1075L21.248 4.9735L17.299 9.9995H19.843L22.811 6.2235L25.315 8.2295C25.3675 8.27151 25.4109 8.32366 25.4428 8.38285C25.4746 8.44204 25.4942 8.50704 25.5004 8.57397C25.5065 8.6409 25.4991 8.70839 25.4786 8.77239C25.4581 8.8364 25.4249 8.89561 25.381 8.9465L24.473 9.9995H27.087C27.4313 9.47925 27.5686 8.84908 27.472 8.23276C27.3755 7.61643 27.0519 7.05848 26.565 6.6685L21.418 2.5465C21.1609 2.34063 20.8656 2.18761 20.5492 2.09622C20.2327 2.00482 19.9014 1.97686 19.5741 2.01394C19.2468 2.05101 18.9301 2.1524 18.6421 2.31227C18.3541 2.47213 18.1005 2.68733 17.896 2.9455L12.309 9.9995H14.86L19.463 4.1875ZM21.5 18.9995C21.2348 18.9995 20.9804 19.1049 20.7929 19.2924C20.6054 19.4799 20.5 19.7343 20.5 19.9995C20.5 20.2647 20.6054 20.5191 20.7929 20.7066C20.9804 20.8941 21.2348 20.9995 21.5 20.9995H24.5C24.7652 20.9995 25.0196 20.8941 25.2071 20.7066C25.3946 20.5191 25.5 20.2647 25.5 19.9995C25.5 19.7343 25.3946 19.4799 25.2071 19.2924C25.0196 19.1049 24.7652 18.9995 24.5 18.9995H21.5ZM6.5 6.9995C5.70435 6.9995 4.94129 7.31557 4.37868 7.87818C3.81607 8.44078 3.5 9.20385 3.5 9.9995V24.4995C3.5 25.693 3.97411 26.8376 4.81802 27.6815C5.66193 28.5254 6.80653 28.9995 8 28.9995H25C26.1935 28.9995 27.3381 28.5254 28.182 27.6815C29.0259 26.8376 29.5 25.693 29.5 24.4995V15.4995C29.5 14.306 29.0259 13.1614 28.182 12.3175C27.3381 11.4736 26.1935 10.9995 25 10.9995H6.5C6.23478 10.9995 5.98043 10.8941 5.79289 10.7066C5.60536 10.5191 5.5 10.2647 5.5 9.9995C5.5 9.73428 5.60536 9.47993 5.79289 9.29239C5.98043 9.10485 6.23478 8.9995 6.5 8.9995H11.08L12.676 6.9995H6.5ZM5.5 24.4995V12.8295C5.813 12.9395 6.15 12.9995 6.5 12.9995H25C25.663 12.9995 26.2989 13.2629 26.7678 13.7317C27.2366 14.2006 27.5 14.8365 27.5 15.4995V24.4995C27.5 25.1625 27.2366 25.7984 26.7678 26.2673C26.2989 26.7361 25.663 26.9995 25 26.9995H8C7.33696 26.9995 6.70107 26.7361 6.23223 26.2673C5.76339 25.7984 5.5 25.1625 5.5 24.4995Z" />
  </symbol>

  <symbol viewBox="0 0 32 32" id="bonus">
    <path d="M30.3976 12.1573C30.2726 11.773 30.0366 11.4342 29.7194 11.1838C29.4022 10.9333 29.0179 10.7823 28.6151 10.7498L21.2401 10.1548L18.3926 3.26858C18.2386 2.89335 17.9765 2.57239 17.6396 2.3465C17.3027 2.12061 16.9063 2 16.5007 2C16.0951 2 15.6987 2.12061 15.3618 2.3465C15.0249 2.57239 14.7628 2.89335 14.6088 3.26858L11.7638 10.1536L4.38508 10.7498C3.98156 10.784 3.59707 10.9364 3.2798 11.1881C2.96253 11.4398 2.72659 11.7795 2.60153 12.1646C2.47648 12.5498 2.46787 12.9633 2.57679 13.3534C2.68571 13.7434 2.90731 14.0927 3.21383 14.3573L8.83883 19.2111L7.12508 26.4686C7.02924 26.8629 7.05271 27.2767 7.19251 27.6577C7.33231 28.0386 7.58214 28.3694 7.91028 28.608C8.23843 28.8467 8.63009 28.9825 9.03555 28.9982C9.44102 29.0139 9.84199 28.9087 10.1876 28.6961L16.5001 24.8111L22.8163 28.6961C23.162 28.9062 23.5622 29.0093 23.9664 28.9925C24.3706 28.9756 24.7608 28.8396 25.0878 28.6014C25.4149 28.3632 25.6641 28.0336 25.8042 27.6541C25.9443 27.2746 25.969 26.8621 25.8751 26.4686L24.1551 19.2098L29.7801 14.3561C30.0891 14.0919 30.3127 13.7419 30.4226 13.3504C30.5326 12.959 30.5238 12.5438 30.3976 12.1573ZM28.4801 12.8411L22.3926 18.0911C22.2538 18.2107 22.1505 18.3662 22.0941 18.5406C22.0376 18.715 22.0302 18.9015 22.0726 19.0798L23.9326 26.9298C23.9374 26.9406 23.9379 26.9529 23.9339 26.9641C23.93 26.9752 23.9219 26.9844 23.9113 26.9898C23.8888 27.0073 23.8826 27.0036 23.8638 26.9898L17.0238 22.7836C16.8663 22.6867 16.685 22.6355 16.5001 22.6355C16.3152 22.6355 16.1339 22.6867 15.9763 22.7836L9.13633 26.9923C9.11758 27.0036 9.11258 27.0073 9.08883 26.9923C9.07828 26.9869 9.0702 26.9777 9.06625 26.9666C9.06229 26.9554 9.06277 26.9431 9.06758 26.9323L10.9276 19.0823C10.97 18.904 10.9625 18.7175 10.9061 18.5431C10.8497 18.3687 10.7464 18.2132 10.6076 18.0936L4.52008 12.8436C4.50508 12.8311 4.49133 12.8198 4.50383 12.7811C4.51633 12.7423 4.52633 12.7473 4.54508 12.7448L12.5351 12.0998C12.7183 12.0841 12.8937 12.0181 13.0419 11.9092C13.1901 11.8003 13.3054 11.6526 13.3751 11.4823L16.4526 4.03108C16.4626 4.00983 16.4663 3.99983 16.4963 3.99983C16.5263 3.99983 16.5301 4.00983 16.5401 4.03108L19.6251 11.4823C19.6954 11.6526 19.8114 11.8002 19.9603 11.9087C20.1092 12.0172 20.2852 12.0825 20.4688 12.0973L28.4588 12.7423C28.4776 12.7423 28.4888 12.7423 28.5001 12.7786C28.5113 12.8148 28.5001 12.8286 28.4801 12.8411Z" />
  </symbol>

  <symbol viewBox="0 0 32 32" id="online">
    <path d="M20.0698 6.77185C20.82 6.02161 21.8376 5.60013 22.8986 5.60013C23.9596 5.60013 24.9771 6.02161 25.7274 6.77185C26.4776 7.5221 26.8991 8.53965 26.8991 9.60065C26.8991 10.6617 26.4776 11.6792 25.7274 12.4295L23.7674 14.3879C23.5489 14.6143 23.4281 14.9175 23.431 15.2321C23.4338 15.5467 23.5602 15.8476 23.7828 16.07C24.0054 16.2924 24.3064 16.4185 24.6211 16.4211C24.9357 16.4236 25.2388 16.3026 25.465 16.0839L27.4234 14.1255C28.5892 12.9184 29.2343 11.3017 29.2197 9.62368C29.2051 7.94563 28.532 6.34043 27.3454 5.15381C26.1588 3.9672 24.5536 3.29412 22.8756 3.27954C21.1975 3.26496 19.5808 3.91004 18.3738 5.07585L13.5738 9.87585C12.9503 10.4994 12.4624 11.245 12.1407 12.0659C11.819 12.8868 11.6704 13.7654 11.7042 14.6465C11.738 15.5276 11.9535 16.3922 12.3371 17.186C12.7208 17.9799 13.2644 18.6859 13.9338 19.2599C14.1759 19.462 14.4878 19.5607 14.8022 19.5346C15.1165 19.5085 15.4079 19.3597 15.6133 19.1204C15.8188 18.8811 15.9218 18.5705 15.9 18.2558C15.8782 17.9412 15.7334 17.6478 15.497 17.4391C15.0781 17.0805 14.7379 16.6392 14.4977 16.1429C14.2575 15.6466 14.1225 15.1061 14.1012 14.5551C14.0798 14.0042 14.1726 13.4547 14.3737 12.9414C14.5748 12.428 14.8799 11.9617 15.2698 11.5719L20.0698 6.77185Z" fill="#5B89F8"/>
    <path d="M19.0648 12.7417C18.8227 12.5396 18.5107 12.4409 18.1964 12.467C17.8821 12.4931 17.5907 12.6419 17.3852 12.8812C17.1798 13.1205 17.0768 13.4311 17.0986 13.7457C17.1204 14.0604 17.2651 14.3538 17.5016 14.5625C17.9204 14.9211 18.2607 15.3623 18.5009 15.8586C18.7411 16.3549 18.8761 16.8955 18.8974 17.4465C18.9187 17.9974 18.8259 18.5468 18.6248 19.0602C18.4237 19.5736 18.1187 20.0399 17.7288 20.4297L12.9288 25.2297C12.1785 25.98 11.161 26.4015 10.1 26.4015C9.03898 26.4015 8.02143 25.98 7.27118 25.2297C6.52094 24.4795 6.09946 23.4619 6.09946 22.4009C6.09946 21.3399 6.52094 20.3224 7.27118 19.5721L9.23118 17.6137C9.44967 17.3873 9.57048 17.0841 9.5676 16.7695C9.56472 16.4548 9.43837 16.1539 9.21578 15.9315C8.99318 15.7092 8.69215 15.5831 8.37751 15.5805C8.06287 15.5779 7.7598 15.699 7.53358 15.9177L5.57518 17.8761C4.96392 18.4665 4.47635 19.1727 4.14093 19.9535C3.80552 20.7344 3.62896 21.5742 3.62158 22.424C3.6142 23.2737 3.77613 24.1165 4.09792 24.903C4.41972 25.6896 4.89494 26.4041 5.49585 27.0051C6.09677 27.606 6.81134 28.0812 7.59788 28.403C8.38441 28.7248 9.22716 28.8867 10.077 28.8793C10.9267 28.8719 11.7665 28.6954 12.5474 28.36C13.3282 28.0246 14.0344 27.537 14.6248 26.9257L19.4248 22.1257C20.0482 21.5022 20.5361 20.7566 20.8578 19.9357C21.1796 19.1147 21.3282 18.2362 21.2944 17.3551C21.2606 16.474 21.0451 15.6094 20.6614 14.8155C20.2777 14.0217 19.7342 13.3156 19.0648 12.7417Z" />
  </symbol>

</svg>



