<svg fill="none" xmlns="http://www.w3.org/2000/svg">

  <symbol viewBox="0 0 24 24" id="del">
    <path d="M10.125 4.87517V5.25017H13.875V4.87517C13.875 4.37789 13.6775 3.90098 13.3258 3.54934C13.125 3.37517 12.4973 3.37517 12 3.37517C11.5027 3.37517 10.8483 3.37517 10.6742 3.54934C10.3225 3.90098 10.125 4.37789 10.125 4.87517ZM8.625 5.25017V4.87517C8.625 3.98006 8.98058 3.12162 9.61351 2.48868C10.2803 2.25 11.1049 2.25 12 2.25C13.2018 2.25 14.1729 2.27528 14.3865 2.48868C15.0194 3.12162 15.375 3.98006 15.375 4.87517V5.25017H21C21.1989 5.25017 21.3897 5.32919 21.5303 5.46984C21.671 5.61049 21.75 5.80126 21.75 6.00017C21.75 6.19908 21.671 6.38985 21.5303 6.5305C21.3897 6.67115 21.1989 6.75017 21 6.75017H19.869L18.45 19.1762C18.3454 20.0913 17.9076 20.9359 17.2201 21.549C16.5326 22.162 15.6436 22.5006 14.7225 22.5002H9.2775C8.3564 22.5006 7.46735 22.162 6.77989 21.549C6.09243 20.9359 5.65464 20.0913 5.55 19.1762L4.131 6.75017H3C2.80109 6.75017 2.61032 6.67115 2.46967 6.5305C2.32902 6.38985 2.25 6.19908 2.25 6.00017C2.25 5.80126 2.32902 5.61049 2.46967 5.46984C2.61032 5.32919 2.80109 5.25017 3 5.25017H8.625ZM7.041 19.0052C7.10362 19.5541 7.36602 20.0608 7.77819 20.4287C8.19037 20.7966 8.7235 21 9.276 21.0002H14.7233C15.2757 21 15.8089 20.7966 16.2211 20.4287C16.6332 20.0608 16.8956 19.5541 16.9583 19.0052L18.36 6.75017H5.64075L7.041 19.0052ZM9.75 9.37517C9.94891 9.37517 10.1397 9.45419 10.2803 9.59484C10.421 9.73549 10.5 9.92626 10.5 10.1252V17.6252C10.5 17.8241 10.421 18.0148 10.2803 18.1555C10.1397 18.2962 9.94891 18.3752 9.75 18.3752C9.55109 18.3752 9.36032 18.2962 9.21967 18.1555C9.07902 18.0148 9 17.8241 9 17.6252V10.1252C9 9.92626 9.07902 9.73549 9.21967 9.59484C9.36032 9.45419 9.55109 9.37517 9.75 9.37517ZM15 10.1252C15 9.92626 14.921 9.73549 14.7803 9.59484C14.6397 9.45419 14.4489 9.37517 14.25 9.37517C14.0511 9.37517 13.8603 9.45419 13.7197 9.59484C13.579 9.73549 13.5 9.92626 13.5 10.1252V17.6252C13.5 17.8241 13.579 18.0148 13.7197 18.1555C13.8603 18.2962 14.0511 18.3752 14.25 18.3752C14.4489 18.3752 14.6397 18.2962 14.7803 18.1555C14.921 18.0148 15 17.8241 15 17.6252V10.1252Z" />
  </symbol>

</svg>
