<svg width="40" height="40" viewBox="0 0 40 40" fill="none" xmlns="http://www.w3.org/2000/svg">
<rect width="40" height="40" rx="2.5" fill="#25272D"/>
<path d="M20.0009 24.848C21.1021 24.848 22.0383 24.4628 22.8094 23.6922C23.5805 22.9217 23.9658 21.9855 23.9652 20.8837C23.9646 19.782 23.5794 18.8461 22.8094 18.0761C22.0395 17.3062 21.1033 16.9206 20.0009 16.9195C18.8986 16.9183 17.9627 17.3038 17.1933 18.0761C16.424 18.8484 16.0384 19.7843 16.0366 20.8837C16.0349 21.9832 16.4204 22.9193 17.1933 23.6922C17.9662 24.4651 18.9021 24.8504 20.0009 24.848ZM20.0009 23.0861C19.3843 23.0861 18.863 22.8732 18.4372 22.4474C18.0114 22.0216 17.7985 21.5004 17.7985 20.8837C17.7985 20.2671 18.0114 19.7458 18.4372 19.3201C18.863 18.8943 19.3843 18.6814 20.0009 18.6814C20.6176 18.6814 21.1388 18.8943 21.5646 19.3201C21.9904 19.7458 22.2033 20.2671 22.2033 20.8837C22.2033 21.5004 21.9904 22.0216 21.5646 22.4474C21.1388 22.8732 20.6176 23.0861 20.0009 23.0861ZM12.9533 27.9314C12.4688 27.9314 12.0542 27.759 11.7094 27.4142C11.3647 27.0695 11.192 26.6546 11.1914 26.1695V15.598C11.1914 15.1135 11.3641 14.6989 11.7094 14.3541C12.0547 14.0094 12.4694 13.8367 12.9533 13.8361H15.7283L17.3581 12.0742H22.6438L24.2736 13.8361H27.0486C27.5331 13.8361 27.948 14.0088 28.2933 14.3541C28.6387 14.6995 28.811 15.1141 28.8105 15.598V26.1695C28.8105 26.654 28.6381 27.0689 28.2933 27.4142C27.9486 27.7596 27.5337 27.9319 27.0486 27.9314H12.9533Z" fill="#1D1F24"/>
</svg>
