<svg width="114" height="114" viewBox="0 0 114 114" fill="none" xmlns="http://www.w3.org/2000/svg">
<path d="M57.0001 82.8194C62.8682 82.8194 67.8568 80.7664 71.966 76.6603C76.0752 72.5543 78.1282 67.5656 78.1251 61.6944C78.122 55.8233 76.0689 50.8362 71.966 46.7332C67.8631 42.6303 62.8744 40.5757 57.0001 40.5694C51.1258 40.5632 46.1387 42.6178 42.0389 46.7332C37.9391 50.8487 35.8845 55.8358 35.8751 61.6944C35.8657 67.5531 37.9203 72.5417 42.0389 76.6603C46.1575 80.7789 51.1446 82.832 57.0001 82.8194ZM57.0001 73.4306C53.714 73.4306 50.9365 72.2961 48.6675 70.0271C46.3985 67.7581 45.264 64.9806 45.264 61.6944C45.264 58.4083 46.3985 55.6308 48.6675 53.3618C50.9365 51.0928 53.714 49.9583 57.0001 49.9583C60.2862 49.9583 63.0638 51.0928 65.3327 53.3618C67.6017 55.6308 68.7362 58.4083 68.7362 61.6944C68.7362 64.9806 67.6017 67.7581 65.3327 70.0271C63.0638 72.2961 60.2862 73.4306 57.0001 73.4306ZM19.4446 99.25C16.8626 99.25 14.6531 98.3315 12.816 96.4944C10.9789 94.6573 10.0588 92.4462 10.0557 89.8611V33.5278C10.0557 30.9458 10.9758 28.7363 12.816 26.8992C14.6562 25.0621 16.8657 24.142 19.4446 24.1389H34.2321L42.9168 14.75H71.0834L79.7682 24.1389H94.5557C97.1376 24.1389 99.3487 25.059 101.189 26.8992C103.029 28.7394 103.948 30.949 103.945 33.5278V89.8611C103.945 92.4431 103.026 94.6541 101.189 96.4944C99.3518 98.3346 97.1407 99.2531 94.5557 99.25H19.4446Z" fill="#1D1F24"/>
</svg>
