<svg fill="none" xmlns="http://www.w3.org/2000/svg">
  <symbol viewBox="0 0 24 24" id="infinity">
    <path d="M17.2703 7C15.3411 7 14.0186 8.21023 12.8759 9.7091L13.5531 10.7024C14.5999 9.26582 15.7128 8.13289 17.2703 8.13289C19.029 8.12953 20.5318 9.3993 20.822 11.1339V12.2668H21.9711C22.2736 9.39375 20.1645 7.03184 17.2703 7ZM17.1671 16.482C19.1418 16.4877 20.9203 15.2886 21.6554 13.4559H20.3811C20.0622 14.0279 19.5959 14.5042 19.0307 14.8352C18.4656 15.1663 17.8221 15.34 17.1671 15.3384C12.8482 15.3426 12.2046 7.26586 6.80368 7C0.38423 7.28445 0.413331 16.1725 6.80368 16.482C8.76142 16.482 10.1039 15.2658 11.2646 13.7573L10.5812 12.7493C9.51728 14.1986 8.3863 15.3387 6.80349 15.3387C1.96985 15.0961 1.96985 8.40453 6.80368 8.14324C11.0945 8.11859 12.1403 16.5493 17.1671 16.482Z" />
  </symbol>
</svg>



